<?xml version="1.0" standalone="no"?>
<!DOCTYPE svg PUBLIC "-//W3C//DTD SVG 20010904//EN"
 "http://www.w3.org/TR/2001/REC-SVG-20010904/DTD/svg10.dtd">
<svg version="1.0" xmlns="http://www.w3.org/2000/svg"
 width="1600.000000pt" height="1542.000000pt" viewBox="0 0 1600.000000 1542.000000"
 preserveAspectRatio="xMidYMid meet">
<metadata>
Created by potrace 1.16, written by Peter Selinger 2001-2019
</metadata>
<g transform="translate(0.000000,1542.000000) scale(0.100000,-0.100000)"
fill="#000000" stroke="none">
<path d="M7625 15413 c-546 -27 -1148 -113 -1630 -234 -577 -145 -1252 -399
-1761 -663 -194 -101 -224 -121 -224 -149 0 -32 -7 -37 -40 -27 -32 9 -83 -11
-154 -59 -25 -17 -48 -31 -51 -31 -19 0 -395 -246 -395 -258 1 -4 7 -18 15
-32 31 -55 10 -90 -55 -90 -26 0 -31 4 -36 30 -8 35 -24 38 -50 9 -16 -17 -16
-22 -4 -29 8 -6 21 -10 28 -10 6 0 22 -12 35 -26 12 -14 39 -35 59 -45 59 -30
65 -92 12 -105 -24 -6 -32 -2 -59 31 -28 32 -35 36 -53 26 -11 -6 -36 -11 -54
-11 -19 0 -63 -11 -97 -25 -68 -26 -81 -25 -81 6 0 10 -4 19 -8 19 -18 0 -92
-73 -92 -90 0 -32 -11 -50 -31 -50 -10 0 -19 5 -19 10 0 18 -62 -20 -117 -73
l-53 -50 31 -15 c32 -16 52 -52 43 -76 -3 -8 -20 -18 -37 -21 -59 -12 -67 -16
-67 -35 0 -12 13 -25 36 -36 46 -22 52 -39 24 -69 -31 -33 -89 -44 -106 -20
-14 19 -10 37 18 77 11 17 14 28 7 30 -6 2 -14 22 -18 45 -6 32 -4 46 8 59 34
37 -58 -34 -139 -107 -261 -234 -612 -610 -861 -920 -181 -225 -499 -679 -499
-711 0 -5 10 -6 23 -3 15 4 35 -3 60 -19 21 -15 41 -26 46 -26 4 0 22 21 39
46 60 84 129 94 231 34 38 -21 87 -42 110 -46 56 -9 73 -35 69 -106 l-3 -53
-37 -3 c-32 -3 -38 -7 -38 -26 0 -13 7 -29 16 -37 12 -10 14 -23 9 -61 -8 -59
-2 -63 91 -51 l68 8 2 92 c5 148 45 205 120 170 19 -9 50 -17 69 -17 32 0 35
3 35 29 0 26 -4 29 -41 34 -50 7 -89 41 -89 78 0 45 33 69 75 53 17 -7 55 -74
55 -98 0 -8 20 -24 45 -36 l45 -22 35 22 35 22 40 -32 c22 -18 45 -41 51 -51
6 -13 20 -19 42 -19 41 0 152 -52 161 -76 4 -10 0 -31 -10 -49 -16 -30 -16
-32 13 -85 16 -30 35 -65 43 -76 18 -28 6 -54 -24 -54 -18 0 -25 -7 -29 -27
-3 -16 -9 -41 -13 -56 -7 -29 16 -67 41 -67 24 0 65 -41 65 -66 0 -32 -21 -39
-59 -20 -45 24 -79 20 -110 -12 -22 -22 -30 -25 -40 -15 -6 7 -25 13 -41 13
-19 0 -37 8 -48 21 -89 111 -98 116 -149 89 -64 -34 -85 -24 -123 62 -11 25
-28 49 -37 53 -29 12 -111 15 -138 5 -33 -13 -32 -34 5 -81 26 -31 38 -38 72
-41 38 -3 42 -6 55 -43 7 -22 22 -47 32 -55 24 -19 41 -53 41 -80 0 -32 -51
-90 -78 -90 -33 0 -100 41 -145 90 -86 89 -139 51 -61 -43 13 -16 24 -41 24
-57 0 -33 13 -45 60 -54 52 -10 77 -34 103 -100 33 -87 47 -84 45 9 -1 60 3
80 16 93 16 16 20 14 67 -38 67 -74 97 -112 101 -129 4 -18 -106 -41 -144 -30
-22 6 -30 4 -38 -11 -5 -10 -23 -23 -40 -28 -22 -8 -30 -17 -30 -34 0 -56 -57
-89 -82 -48 -13 20 -58 28 -58 11 0 -6 11 -22 25 -37 28 -30 33 -72 10 -80
-20 -8 -73 14 -85 36 -5 9 -7 30 -4 48 4 22 -5 50 -31 101 -36 72 -43 105 -25
116 15 9 12 45 -3 45 -8 0 -24 11 -36 24 -42 44 -133 40 -172 -8 -16 -19 -18
-19 -42 -3 -19 12 -25 24 -24 51 1 26 -6 42 -27 61 -22 21 -26 29 -16 40 9 11
17 12 30 5 25 -13 66 -13 88 1 13 8 30 5 76 -15 72 -32 95 -22 52 23 -24 25
-33 28 -67 24 -48 -7 -79 18 -111 84 -17 36 -25 42 -47 41 -86 -6 -151 28
-151 78 0 14 -4 23 -9 20 -5 -3 -26 6 -47 21 -22 14 -67 32 -102 39 -77 16
-82 19 -82 50 0 17 8 28 26 36 22 10 27 9 37 -7 10 -18 35 -44 70 -72 19 -15
64 3 72 29 7 21 -4 68 -16 68 -5 0 -9 5 -9 10 0 6 11 10 25 10 19 0 25 5 25
23 0 38 37 70 76 65 19 -2 34 -2 34 0 0 2 -10 27 -22 55 -24 58 -52 86 -85 87
-33 0 -80 46 -95 92 l-14 42 -72 -120 c-66 -110 -86 -154 -63 -140 18 11 161
-63 161 -84 0 -4 -17 -10 -37 -13 -32 -4 -42 -1 -59 20 -16 18 -35 27 -66 30
l-44 5 -52 -94 c-121 -220 -302 -616 -402 -883 -156 -417 -256 -756 -330
-1125 -125 -622 -167 -1071 -157 -1670 7 -421 32 -697 98 -1095 68 -410 142
-714 261 -1075 313 -954 752 -1743 1420 -2554 25 -30 30 -19 73 163 45 188
111 333 238 522 106 158 161 218 239 259 35 18 79 45 98 59 68 51 103 72 181
112 44 21 103 61 132 87 28 26 84 73 122 104 39 31 101 82 139 114 135 111
237 168 416 233 63 24 124 49 136 56 11 7 41 18 65 25 24 6 107 28 184 50 195
53 276 67 465 81 189 13 174 13 260 -1 181 -31 210 -33 272 -20 40 9 70 22 88
40 15 14 41 32 58 39 18 8 32 20 32 28 0 10 9 7 32 -12 28 -23 37 -26 76 -20
40 6 76 7 252 6 105 -1 119 5 112 49 -5 33 15 83 30 74 14 -9 9 -34 -7 -34
-12 0 -15 -10 -13 -39 l3 -39 151 2 151 1 -5 43 c-4 34 -2 41 10 37 8 -3 21
-20 29 -38 12 -28 19 -32 50 -31 48 1 89 12 89 24 0 5 -13 23 -29 39 -16 17
-32 38 -35 48 -7 21 -63 56 -71 44 -2 -5 4 -16 15 -26 23 -20 27 -55 7 -55 -8
0 -24 11 -37 25 -19 21 -21 25 -7 25 19 0 21 8 9 28 -6 9 -14 0 -27 -28 -10
-22 -24 -40 -30 -40 -7 0 -28 -3 -46 -6 l-34 -5 29 25 30 25 -24 19 c-15 12
-21 25 -17 35 9 25 26 21 38 -10 7 -20 12 -24 22 -14 9 9 9 16 -1 32 -18 29
-10 33 34 19 21 -7 66 -12 101 -12 57 1 67 -2 98 -29 31 -28 35 -37 35 -80 0
-42 -3 -49 -20 -49 -11 0 -20 -4 -20 -8 0 -9 95 -6 111 3 5 4 8 3 7 -2 -2 -4
2 -9 7 -10 6 -2 10 0 10 5 1 25 54 60 109 71 29 6 45 25 163 196 15 22 60 103
98 179 39 77 75 141 82 143 15 5 53 -36 53 -59 0 -10 3 -17 8 -17 23 4 32 -4
32 -29 0 -16 12 -41 28 -60 55 -64 139 -157 228 -251 49 -53 103 -114 119
-136 64 -87 260 -261 339 -302 17 -9 43 -25 58 -37 14 -12 45 -32 68 -46 23
-14 81 -65 129 -115 48 -49 116 -116 152 -147 35 -31 78 -71 94 -87 21 -21 48
-34 85 -42 55 -11 151 -55 202 -90 27 -20 74 -26 63 -9 -9 15 23 24 39 11 18
-15 36 12 28 41 -3 13 2 21 16 25 23 6 39 36 23 41 -6 2 -11 15 -11 29 0 20 4
23 20 18 14 -5 20 -2 20 9 0 9 -9 16 -20 16 -17 0 -19 4 -14 26 6 23 4 25 -15
19 -15 -4 -21 -2 -21 8 0 8 -15 24 -32 36 -32 20 -32 21 -10 27 17 5 22 14 22
41 0 19 -4 32 -9 29 -16 -10 -20 21 -5 43 10 13 26 21 45 21 20 0 29 5 29 16
0 10 -6 14 -14 11 -25 -10 -25 20 0 44 13 12 24 27 24 32 0 13 28 35 67 53 21
9 38 27 47 48 8 19 24 39 35 45 12 7 18 17 14 27 -4 11 -9 12 -16 5 -6 -6 -15
-11 -19 -11 -12 0 -10 38 2 45 6 3 10 25 11 48 0 35 2 38 9 20 11 -26 42 -30
60 -8 10 12 8 21 -12 47 -38 52 -62 118 -38 103 6 -4 8 -11 5 -16 -4 -5 1 -9
9 -9 9 0 16 -6 16 -14 0 -7 9 -25 21 -39 16 -22 23 -25 38 -15 10 6 30 8 44 4
29 -7 36 -40 17 -77 -9 -15 -7 -19 5 -19 9 0 24 19 35 43 20 42 20 42 -1 60
-12 9 -32 17 -45 17 -24 0 -24 0 -19 87 5 88 1 123 -15 123 -19 0 -31 -39 -18
-59 14 -24 11 -28 -22 -33 -26 -3 -30 8 -15 45 6 14 2 17 -28 17 -37 0 -47
-12 -47 -56 0 -13 -6 -24 -13 -24 -9 0 -12 14 -10 47 6 79 3 137 -8 165 -6 14
-9 35 -7 45 7 31 48 -66 48 -114 0 -41 1 -43 29 -43 16 0 31 6 35 15 3 8 13
15 23 16 10 0 29 14 42 30 21 27 22 33 10 55 -15 30 -39 28 -55 -4 -19 -38
-34 -49 -34 -25 0 11 7 26 16 34 15 12 15 34 -1 72 -5 12 -3 17 8 17 9 0 25
13 36 29 22 30 28 61 12 61 -12 0 -32 -25 -26 -32 3 -3 -1 -10 -9 -17 -11 -9
-17 -8 -30 4 -20 20 -20 39 -1 55 8 7 15 21 15 32 0 17 -4 19 -27 13 -26 -6
-27 -6 -10 13 9 10 17 29 18 43 l0 24 9 -22 c10 -24 30 -31 30 -12 0 7 10 27
22 47 22 36 34 137 17 147 -5 3 -4 14 3 24 6 10 8 30 4 44 -5 22 -12 27 -39
27 -37 0 -51 -8 -60 -32 -3 -10 -11 -18 -18 -18 -19 0 29 65 51 68 24 4 26 24
5 46 -17 17 -20 36 -5 36 6 0 10 -7 10 -15 0 -8 5 -15 10 -15 6 0 10 -6 10
-14 0 -8 9 -18 20 -21 11 -3 20 -13 20 -21 0 -9 6 -22 14 -29 8 -8 17 -38 20
-67 4 -29 9 -71 13 -92 l5 -39 13 29 c19 47 26 144 10 144 -17 0 -65 85 -72
127 -3 18 -12 38 -19 44 -8 6 -14 22 -14 34 0 13 -7 25 -15 29 -8 3 -15 12
-15 20 0 12 -10 14 -47 11 -27 -2 -56 -4 -65 -5 -25 0 -22 -20 3 -20 16 0 20
-5 17 -23 -1 -13 6 -36 16 -51 19 -30 18 -55 -6 -118 -20 -53 -23 -53 -20 1 2
27 2 59 0 72 -4 24 -5 24 -16 -4 -19 -44 -37 -28 -37 34 0 35 -6 63 -18 79 -9
13 -17 37 -17 53 0 22 -4 28 -15 23 -9 -3 -18 1 -21 9 -12 30 -24 14 -24 -30
0 -44 -15 -60 -26 -30 -23 58 -46 -55 -29 -139 6 -29 5 -37 -3 -32 -7 4 -12
17 -12 28 0 34 -23 88 -37 88 -16 0 -17 -17 -2 -22 6 -2 -4 -21 -21 -43 -21
-26 -30 -47 -27 -62 2 -13 0 -23 -4 -23 -5 0 -9 7 -9 16 0 11 -6 14 -20 9 -27
-9 -25 4 9 51 28 39 56 104 44 104 -4 0 -15 -8 -26 -17 -20 -17 -20 -17 -12 2
4 11 10 31 13 44 4 21 3 22 -15 12 -25 -13 -33 -6 -33 31 0 18 5 28 15 28 8 0
15 5 15 10 0 13 -6 13 -47 -2 -18 -7 -33 -18 -33 -25 0 -7 -11 -15 -25 -19
-17 -4 -33 -21 -46 -46 -20 -40 -17 -73 13 -132 8 -15 0 -33 -37 -88 -52 -75
-69 -135 -58 -201 4 -27 3 -38 -5 -33 -6 3 -10 38 -10 79 0 83 -8 87 -58 29
-36 -41 -36 -57 -3 -124 23 -46 24 -60 3 -56 -9 2 -23 23 -31 48 -26 82 -23
77 -33 60 -12 -21 10 -102 32 -118 22 -16 24 -42 3 -42 -8 0 -15 4 -15 9 0 6
-16 27 -34 48 l-35 37 -11 -29 c-6 -17 -12 -35 -15 -42 -8 -24 18 -82 39 -85
11 -2 22 -12 24 -23 7 -37 23 -47 43 -29 18 16 19 16 19 0 0 -11 7 -16 18 -14
24 4 22 -26 -3 -31 -11 -2 -25 -11 -32 -20 -11 -14 -12 -13 -13 11 0 29 -16
46 -31 31 -8 -8 -24 -203 -16 -203 3 0 13 17 24 38 14 29 16 44 9 65 -5 14 -6
30 -2 34 8 8 41 -26 48 -49 2 -6 12 -9 21 -5 14 5 15 11 5 37 -5 17 -8 33 -5
37 11 10 27 -9 27 -32 0 -13 5 -27 10 -30 6 -3 10 -17 10 -31 0 -33 27 -84 44
-84 7 0 19 -7 27 -16 11 -14 9 -15 -16 -12 -23 2 -36 14 -64 61 -34 58 -35 58
-47 35 -19 -32 -17 -40 6 -33 17 5 20 2 20 -23 0 -17 9 -37 21 -48 28 -25 69
-107 69 -138 0 -14 9 -33 19 -43 11 -10 22 -30 26 -44 6 -24 4 -25 -29 -21
-34 4 -35 5 -32 48 2 37 -1 44 -16 44 -10 0 -18 5 -18 10 0 6 5 10 10 10 15 0
12 30 -4 36 -8 3 -18 18 -21 34 -7 30 -31 57 -42 47 -3 -4 0 -27 6 -52 6 -25
9 -51 5 -56 -3 -6 -2 -21 4 -32 26 -56 42 -157 25 -157 -12 0 -33 51 -33 77 0
13 -4 23 -10 23 -5 0 -10 -5 -10 -11 0 -6 -8 -27 -17 -46 -13 -29 -14 -39 -4
-55 19 -30 4 -34 -25 -7 -36 34 -48 59 -35 72 6 6 11 20 11 32 0 12 7 30 15
41 19 25 19 53 0 60 -10 4 -15 20 -15 44 0 24 5 40 15 44 8 3 15 12 15 21 0 8
5 15 10 15 16 0 11 27 -6 34 -9 3 -19 6 -23 6 -14 0 -29 -66 -25 -110 7 -84 6
-91 -21 -116 -28 -26 -45 -24 -45 6 0 12 5 17 14 14 17 -7 26 27 19 72 -6 33
-23 38 -23 6 -1 -26 -46 -73 -65 -66 -14 6 -14 9 0 31 11 16 14 35 10 56 -3
18 -10 68 -16 112 -5 44 -13 83 -18 88 -10 10 -2 149 10 161 5 6 9 -5 9 -26 0
-30 4 -37 23 -40 19 -3 23 -10 27 -62 3 -35 10 -61 17 -64 17 -5 20 8 27 106
5 78 4 83 -13 77 -15 -4 -20 1 -25 26 -3 17 -6 42 -6 54 0 12 -7 28 -15 35
-21 17 -19 30 5 30 15 0 20 7 20 25 0 14 10 45 22 68 16 32 23 69 29 157 4 66
14 131 24 153 16 40 13 57 -11 57 -8 0 -14 10 -14 24 0 13 -9 35 -21 50 -11
14 -17 31 -13 38 5 8 14 2 30 -17 20 -26 22 -26 32 -9 5 11 13 39 17 62 7 41
6 43 -12 33 -11 -5 -25 -17 -33 -25 -7 -9 -19 -16 -26 -16 -8 0 -14 -6 -14
-13 0 -14 -39 -41 -47 -33 -11 11 29 58 87 103 33 25 60 50 60 55 0 11 -7 10
-31 -2 -29 -16 -41 -3 -23 26 12 18 25 24 53 24 20 0 43 6 51 12 8 8 7 3 -3
-14 -23 -37 -22 -41 11 -33 42 10 45 19 16 53 l-27 31 -129 -6 c-82 -3 -128
-2 -128 5 0 5 38 11 84 14 48 2 91 10 100 17 12 10 23 11 47 2 40 -14 34 -15
62 15 30 32 107 47 107 20 0 -10 -13 -22 -31 -28 -19 -7 -27 -14 -21 -20 6 -6
25 0 52 17 30 19 45 23 50 15 8 -12 56 -4 66 12 3 5 18 14 32 19 37 14 11 29
-33 19 -48 -11 -85 -2 -78 19 9 21 23 31 50 31 12 0 33 12 47 27 28 30 44 26
24 -6 -11 -18 -10 -23 7 -36 12 -9 31 -13 48 -10 25 4 27 2 25 -23 -3 -26 -2
-27 67 -35 197 -22 202 -22 236 12 17 17 39 31 50 31 10 0 19 7 19 15 0 18
-37 20 -43 3 -3 -10 -13 -10 -51 0 -32 8 -53 9 -66 2 -28 -15 -76 -12 -90 5
-7 9 -19 14 -26 11 -8 -3 -18 3 -24 14 -15 28 -13 30 21 13 25 -12 50 -14 112
-10 86 7 97 11 79 29 -8 8 -15 8 -27 -2 -21 -17 -46 3 -27 22 19 19 14 32 -17
51 -19 11 -39 15 -59 11 -34 -7 -92 26 -92 52 0 8 -13 17 -30 21 -17 3 -33 10
-36 14 -10 17 -26 9 -21 -11 3 -11 1 -23 -5 -26 -5 -3 -7 -13 -3 -23 3 -9 -5
-4 -18 12 -30 33 -33 33 -41 2 -10 -41 -71 -45 -191 -12 -46 13 -51 17 -61 53
-6 21 -15 50 -21 64 -15 35 2 39 151 35 84 -2 142 1 177 10 87 23 83 35 -13
34 -47 -1 -91 1 -97 5 -6 4 -21 0 -35 -9 -20 -14 -47 -16 -157 -12 -125 4
-133 5 -150 28 -29 36 -34 68 -18 113 13 38 17 41 56 44 38 3 43 0 59 -29 l17
-33 16 34 c17 37 40 47 108 49 33 1 46 -4 60 -23 l18 -23 10 21 c18 35 142 58
169 31 19 -19 26 -19 26 0 0 18 39 35 80 35 18 0 35 -9 48 -25 l19 -24 28 29
c29 31 87 42 100 20 4 -6 18 -9 33 -8 37 4 52 -48 29 -98 -10 -19 -17 -36 -17
-38 0 -2 21 -6 48 -8 58 -6 145 -29 154 -43 4 -5 8 -25 8 -44 0 -22 10 -46 30
-71 16 -20 39 -58 49 -84 11 -25 25 -46 31 -46 5 0 10 -16 10 -35 0 -19 5 -35
10 -35 16 0 12 -28 -5 -38 -24 -13 -25 -64 -3 -82 18 -15 18 -17 -1 -60 -25
-54 -26 -83 -6 -100 21 -18 19 -33 -5 -27 -32 8 -24 -20 10 -37 28 -13 30 -13
30 4 0 9 6 23 13 29 11 8 17 5 28 -16 18 -35 48 -65 60 -61 13 4 -40 80 -79
113 -29 24 -35 45 -13 45 14 0 76 -63 96 -97 11 -18 27 -33 37 -33 15 0 17 -5
12 -25 -4 -18 1 -34 18 -58 43 -57 88 -137 88 -155 0 -9 -5 -24 -11 -32 -9
-13 -10 -13 -6 1 3 10 -7 31 -23 50 -16 19 -29 28 -30 22 0 -7 5 -13 10 -13 6
0 10 -15 10 -32 0 -23 -3 -29 -9 -19 -6 9 -13 -1 -25 -37 -11 -31 -27 -57 -43
-68 -15 -9 -39 -31 -55 -48 -21 -23 -28 -26 -28 -13 0 9 5 17 10 17 6 0 10 6
10 14 0 8 7 17 16 20 19 7 12 50 -12 77 -14 16 -19 49 -8 49 4 0 12 -8 19 -17
11 -15 13 -15 25 7 27 51 -16 192 -72 233 -21 16 -30 18 -41 9 -9 -8 -24 -9
-47 -2 -38 11 -63 -2 -53 -26 4 -10 -2 -17 -16 -21 -14 -4 -21 -13 -21 -30 0
-20 -3 -22 -19 -13 -26 13 -41 -8 -18 -25 19 -14 24 -90 7 -100 -6 -4 -8 -11
-4 -16 14 -23 64 51 56 84 -2 9 3 20 11 23 12 4 13 11 4 35 -12 32 -1 54 21
40 21 -13 86 -199 80 -229 -3 -12 -9 -8 -22 17 -22 42 -66 90 -66 73 0 -7 9
-20 19 -29 11 -9 17 -22 14 -28 -2 -7 0 -16 6 -20 6 -3 11 -17 11 -29 0 -28
26 -93 39 -98 9 -3 0 -78 -14 -110 -10 -25 6 -22 48 6 l35 24 31 -28 c24 -23
31 -37 31 -66 0 -44 -6 -42 -13 4 -3 19 -7 35 -9 35 -2 1 -13 8 -25 15 -31 17
-33 16 -33 -16 0 -35 22 -82 50 -107 24 -22 20 -25 59 52 21 42 31 77 31 108
0 38 3 45 20 45 21 0 27 -15 10 -25 -5 -3 -10 -17 -10 -29 0 -13 -9 -45 -21
-70 -11 -26 -18 -54 -15 -61 2 -7 -2 -16 -10 -19 -9 -4 -14 -15 -12 -28 2 -18
9 -23 31 -21 34 2 36 -20 7 -77 -18 -35 -83 -110 -96 -110 -2 0 -2 23 2 50 7
50 -1 61 -24 38 -9 -9 -12 -8 -12 8 0 11 5 25 11 31 14 14 3 88 -16 103 -11 9
-17 6 -30 -14 -10 -14 -21 -26 -26 -26 -17 0 -9 35 11 48 23 14 27 59 6 87
-12 17 -13 17 -20 -9 -4 -15 -4 -36 -1 -46 4 -12 -1 -19 -15 -23 -15 -4 -20
-13 -20 -41 0 -30 4 -36 21 -36 13 0 23 -8 26 -21 4 -16 11 -19 29 -15 l24 6
-21 -37 c-12 -21 -25 -43 -29 -48 -5 -6 -5 -17 0 -25 8 -12 14 -10 36 15 18
21 24 24 19 10 -10 -27 -7 -84 6 -118 16 -39 -15 -146 -36 -125 -3 2 1 21 7
42 10 31 9 46 -7 92 -13 38 -23 53 -32 50 -8 -3 -16 1 -19 9 -8 19 -38 19 -54
0 -6 -8 -16 -30 -20 -50 -7 -29 -5 -35 9 -35 9 0 22 -5 28 -11 8 -8 13 -5 18
11 8 26 -2 40 -16 20 -8 -12 -9 -11 -7 5 5 29 53 28 53 -2 0 -11 3 -25 8 -29
10 -11 9 -52 -3 -59 -18 -11 -11 -56 13 -76 29 -24 59 -24 75 1 14 23 42 27
42 5 0 -22 8 -19 56 20 23 19 49 35 57 35 8 0 20 7 27 15 7 8 22 15 34 15 12
0 16 4 11 8 -6 4 -11 18 -10 32 0 18 9 29 33 40 30 13 33 18 30 49 -2 28 1 37
15 39 9 2 17 -2 17 -8 0 -10 4 -9 15 0 20 16 19 30 -2 46 -17 12 -16 15 11 38
16 14 26 32 23 40 -4 9 0 12 11 10 16 -4 62 53 62 76 0 4 9 6 20 3 12 -3 20 0
20 6 0 25 50 121 64 121 21 0 96 87 96 111 0 11 13 33 28 47 16 15 36 41 45
57 19 37 22 30 37 -95 7 -62 16 -99 26 -106 19 -15 128 -185 142 -221 5 -15
17 -49 26 -74 25 -69 152 -259 173 -259 10 0 56 5 103 11 70 8 247 17 615 32
55 2 415 -22 495 -34 36 -5 189 -13 340 -19 276 -10 374 -19 485 -45 33 -7 98
-17 145 -20 128 -10 360 -58 573 -118 70 -20 87 -22 87 -11 0 8 5 14 10 14 6
0 10 -9 10 -19 0 -12 13 -24 38 -34 20 -8 116 -54 212 -101 178 -88 275 -152
445 -295 46 -39 111 -87 144 -106 51 -30 102 -72 222 -185 15 -14 45 -37 68
-52 25 -17 59 -57 87 -100 25 -39 82 -118 125 -174 43 -56 79 -105 79 -109 0
-3 20 -39 43 -78 24 -40 66 -118 92 -174 47 -100 49 -102 68 -85 37 33 325
481 442 687 58 102 300 587 318 636 4 12 -7 22 -42 38 -34 15 -54 32 -71 62
-20 37 -22 50 -17 120 5 62 4 79 -7 79 -24 0 -64 40 -71 71 -4 17 -13 42 -21
57 -8 15 -14 35 -14 45 0 45 -74 74 -115 43 -17 -12 -15 -16 30 -48 39 -29 51
-45 63 -84 23 -81 21 -116 -9 -133 -39 -22 -75 -8 -99 38 -21 41 -95 90 -173
113 -21 6 -48 24 -61 38 -36 43 -59 50 -150 48 -69 -3 -88 0 -102 14 -16 16
-19 16 -46 0 -37 -22 -35 -38 6 -52 57 -19 55 -55 -6 -113 -29 -27 -30 -29
-13 -47 10 -11 24 -20 30 -20 21 0 111 -87 124 -119 18 -41 11 -75 -15 -79
-15 -2 -33 11 -63 47 -31 37 -54 54 -93 67 -28 9 -67 27 -86 40 -35 24 -102
33 -102 14 0 -5 -23 -32 -50 -58 l-50 -48 31 -47 c47 -71 34 -86 -58 -68 -24
5 -44 6 -44 2 -1 -3 -3 -37 -4 -75 -3 -69 -15 -99 -31 -74 -5 7 -9 49 -9 94 0
54 -5 87 -14 97 -18 22 -1 44 43 55 17 5 32 15 34 23 1 8 -31 49 -71 92 -73
77 -75 78 -118 75 l-44 -3 -5 -57 c-6 -61 10 -92 58 -117 28 -15 29 -38 1 -46
-12 -4 -37 -18 -56 -31 -44 -30 -83 -30 -141 -2 -82 41 -130 168 -84 224 26
32 55 44 111 44 58 0 74 16 41 42 -19 16 -37 18 -106 16 -69 -3 -85 0 -103 16
-31 28 -26 43 22 72 41 25 67 51 67 65 0 3 -13 23 -30 44 -35 45 -38 67 -9 96
18 18 30 20 69 17 45 -5 51 -2 80 29 28 29 38 33 81 33 56 0 60 8 27 57 -28
40 -73 51 -135 35 -24 -7 -56 -12 -72 -12 -17 0 -42 -5 -57 -10 -34 -13 -90 3
-104 31 -13 23 1 53 30 69 28 15 93 12 116 -5 24 -18 51 -19 61 -2 14 24 99
47 135 36 18 -5 47 -9 64 -9 20 0 40 -10 62 -31 18 -17 32 -35 32 -40 0 -4 4
-19 10 -34 8 -22 13 -24 31 -15 20 11 59 87 59 116 0 8 -20 23 -43 33 -46 20
-87 62 -87 90 0 33 108 111 154 111 11 0 34 16 52 35 27 30 38 35 75 35 83 0
159 -64 159 -134 -1 -38 -23 -131 -40 -169 -20 -41 1 -72 60 -92 26 -9 54 -24
63 -33 11 -13 47 -124 47 -148 0 -9 77 -42 86 -36 5 4 15 19 21 34 18 40 68
46 141 19 91 -35 88 -35 102 -1 16 39 41 53 85 44 45 -8 61 5 69 60 11 74 29
86 108 71 31 -6 38 -4 53 18 21 32 55 40 96 23 32 -13 34 -13 60 15 15 16 34
29 43 29 26 0 105 -80 132 -131 27 -54 27 -54 70 -63 l32 -7 26 78 c196 596
336 1482 336 2125 l0 158 -27 6 c-54 11 -81 26 -118 64 l-37 38 32 46 c19 25
41 47 49 47 34 3 57 1 74 -6 28 -12 22 39 -8 59 -38 25 -62 21 -70 -14 -4 -17
-13 -31 -21 -31 -8 -1 -20 -2 -26 -4 -17 -2 -57 22 -86 51 -28 29 -56 30 -116
3 -32 -14 -57 -18 -76 -14 -40 9 -70 -2 -70 -25 0 -21 28 -40 59 -40 11 0 32
-12 46 -27 22 -25 32 -28 88 -28 62 0 62 0 65 -31 5 -51 -35 -70 -96 -45 -19
8 -32 21 -34 34 -4 29 -35 33 -61 9 -47 -41 -144 -55 -186 -26 -17 12 -26 13
-34 5 -6 -6 -37 -11 -69 -11 -48 0 -59 3 -69 21 -22 42 -28 78 -16 108 9 24 8
33 -5 48 -8 10 -18 39 -20 65 -3 26 -15 58 -27 74 -25 32 -27 75 -4 111 17 25
16 26 -12 49 -32 26 -84 44 -127 44 -15 0 -30 5 -33 10 -13 21 -35 8 -55 -31
-16 -31 -25 -39 -38 -34 -9 4 -53 11 -97 15 -44 5 -91 11 -105 15 -19 4 -36
-2 -68 -25 -24 -17 -46 -38 -49 -46 -10 -28 17 -62 56 -69 53 -10 61 -21 61
-85 0 -52 3 -61 35 -96 43 -47 43 -75 -2 -86 -29 -8 -83 -58 -83 -79 0 -16
-36 -10 -51 9 -27 32 -49 92 -49 135 0 23 -4 48 -9 55 -12 20 -46 10 -49 -15
-4 -28 -49 -76 -63 -67 -8 5 -10 34 -6 95 5 67 3 96 -9 124 -19 47 -11 109 18
129 37 26 62 140 39 184 -15 28 -48 115 -55 145 -5 21 -12 27 -36 28 -17 1
-36 2 -42 3 -19 2 -21 -32 -4 -59 9 -13 16 -37 16 -51 0 -15 5 -42 12 -61 11
-29 10 -35 -12 -58 -32 -34 -58 -40 -81 -19 -23 21 -25 47 -4 64 25 21 18 36
-37 81 -68 54 -88 77 -88 99 0 24 72 52 127 49 36 -3 48 2 75 28 18 17 44 36
57 43 20 10 26 9 51 -15 24 -23 34 -26 63 -21 51 10 70 36 62 84 -5 31 -1 50
16 84 13 23 24 48 25 54 1 7 -17 30 -40 52 -33 32 -50 41 -87 44 -28 3 -56 14
-69 26 -18 16 -26 18 -48 10 -23 -9 -34 -6 -63 13 -20 13 -50 31 -67 40 -19
11 -34 30 -42 55 -7 22 -30 62 -51 90 -42 55 -51 102 -24 124 23 19 90 6 144
-28 26 -16 61 -32 77 -36 16 -4 60 -23 98 -42 103 -53 152 -29 90 45 -31 37
-26 65 17 86 16 9 29 19 29 24 0 5 -20 25 -45 45 -37 31 -45 43 -45 71 0 25 7
39 27 55 24 19 35 21 83 14 88 -11 92 -11 109 20 36 63 88 61 122 -5 20 -40
22 -41 57 -34 82 16 132 -6 166 -75 9 -19 19 -24 41 -23 44 4 82 -15 93 -45
19 -50 35 -129 29 -145 -9 -25 -61 -31 -102 -11 -20 9 -38 14 -41 12 -6 -7 73
-88 86 -88 6 0 22 7 35 16 32 21 61 10 81 -29 30 -57 34 -84 15 -101 -23 -21
-40 -20 -76 4 -35 23 -45 14 -45 -42 0 -24 -8 -46 -24 -65 -28 -33 -49 -100
-51 -158 0 -22 -4 -47 -8 -56 -5 -10 3 -28 23 -54 36 -45 37 -63 9 -99 l-21
-27 28 -30 c17 -18 38 -29 55 -29 31 0 44 -22 29 -50 -28 -52 -3 -52 59 0 37
31 56 41 82 40 19 -1 50 1 70 5 25 5 45 2 67 -9 38 -20 105 -21 121 -2 8 10 7
22 -4 50 -16 38 -19 40 -68 50 -55 13 -46 74 10 68 24 -3 32 1 36 17 6 25 -20
46 -73 61 -60 17 -60 17 -40 104 11 43 21 81 24 83 14 15 63 2 104 -27 45 -32
45 -32 61 -11 27 35 71 44 122 25 42 -16 139 -26 139 -14 0 57 -104 526 -164
742 -54 193 -190 599 -219 654 -13 25 -21 29 -58 29 -40 0 -44 3 -70 45 -33
54 -36 86 -9 100 28 15 45 49 31 63 -6 6 -11 22 -11 37 -1 14 -7 36 -14 49
-12 22 -20 25 -64 22 -41 -2 -55 2 -72 19 -31 31 -22 86 20 121 l30 26 -64
129 c-35 71 -71 138 -79 148 -13 18 -15 17 -21 -16 -10 -56 -22 -59 -101 -28
-55 22 -81 27 -120 23 -44 -4 -53 -2 -74 20 -35 38 -30 70 20 126 46 52 86 64
130 40 16 -8 26 -7 45 6 l25 16 -27 48 c-14 27 -39 65 -56 85 -27 33 -34 36
-84 36 -58 0 -71 -14 -28 -30 42 -16 84 -50 84 -67 0 -9 -11 -31 -26 -50 -22
-29 -31 -33 -70 -33 -64 0 -88 27 -80 89 3 26 3 50 0 54 -13 12 -34 -15 -34
-43 0 -42 -9 -59 -41 -76 -16 -8 -29 -21 -29 -28 0 -8 18 -43 39 -78 22 -36
44 -81 49 -101 9 -33 8 -41 -12 -65 -28 -33 -66 -102 -66 -120 0 -18 -68 19
-104 57 -33 35 -54 39 -62 14 -3 -10 -10 -27 -16 -39 -7 -16 -5 -31 11 -62 29
-57 27 -100 -8 -148 -16 -21 -32 -54 -36 -71 -5 -24 -12 -33 -27 -33 -30 0
-78 53 -78 87 0 38 -31 66 -97 88 -29 9 -55 21 -58 26 -11 17 -23 9 -28 -21
-4 -16 -18 -37 -32 -46 -22 -14 -32 -15 -63 -6 -21 6 -48 21 -61 33 -13 12
-44 26 -70 30 -61 12 -85 40 -77 91 l6 38 -32 -13 c-36 -15 -39 -28 -19 -102
6 -22 13 -51 15 -65 7 -35 51 -51 91 -34 44 19 48 18 95 -23 52 -46 74 -92 61
-127 -13 -31 -28 -41 -70 -41 -19 0 -36 -5 -38 -11 -4 -11 60 -34 95 -34 28 0
90 -30 96 -47 3 -7 8 -44 11 -81 9 -101 11 -107 50 -125 58 -27 74 -23 96 29
52 117 102 30 74 -129 -7 -42 -5 -51 14 -71 38 -41 37 -82 -4 -164 -21 -40
-50 -81 -67 -93 -28 -20 -29 -24 -23 -69 7 -54 -9 -80 -50 -80 -38 0 -65 44
-65 106 0 32 -5 54 -12 57 -7 3 1 6 18 6 41 1 55 19 57 73 l2 43 -42 3 -43 3
0 -54 c0 -29 -3 -56 -6 -60 -12 -12 -159 71 -182 102 -12 17 -33 38 -46 46
-21 14 -27 14 -67 -5 -68 -30 -123 -24 -156 19 -18 23 -16 77 3 107 26 38 13
114 -27 164 -18 22 -37 40 -44 40 -6 0 -26 -13 -45 -29 l-34 -28 27 -36 c30
-39 33 -57 15 -75 -17 -17 -44 -15 -63 5 -13 12 -15 26 -11 55 6 34 2 44 -24
76 -68 83 -13 145 100 111 45 -14 109 -4 117 18 9 22 -11 30 -93 38 -77 7 -85
13 -77 58 5 25 23 39 23 17 0 -14 117 -13 126 1 4 7 -11 26 -35 47 l-42 35 6
62 c7 60 6 63 -16 71 -13 4 -28 7 -33 6 -22 -6 -50 14 -87 63 -28 38 -49 54
-71 59 -17 3 -45 17 -62 29 -17 13 -39 26 -49 30 -25 9 -32 34 -18 64 10 21
17 24 40 20 35 -7 67 13 58 37 -7 18 -47 36 -81 36 -40 0 -45 19 -26 94 9 39
21 71 28 74 6 2 25 -6 41 -17 41 -29 77 -32 73 -6 -2 11 -4 39 -5 63 -2 50 10
62 66 62 20 0 37 4 37 10 0 5 14 25 30 43 17 19 30 38 30 41 0 4 -9 20 -21 35
-26 35 -19 65 20 81 23 9 30 19 34 52 3 23 11 45 19 49 45 29 92 -13 64 -56
-9 -14 -16 -41 -16 -62 0 -28 -8 -49 -31 -76 -17 -21 -28 -44 -25 -52 3 -8 39
-31 81 -51 41 -19 78 -40 81 -46 4 -5 -3 -23 -15 -39 -11 -15 -21 -31 -21 -35
0 -4 25 -4 55 0 37 4 62 13 77 28 27 27 16 47 -38 65 -65 22 -92 108 -59 187
8 20 19 36 24 36 5 0 24 -18 41 -40 36 -46 46 -48 100 -20 27 14 40 27 40 41
0 24 -66 135 -85 143 -7 2 -29 -11 -49 -30 -51 -48 -64 -44 -76 26 -4 29 -13
39 -55 62 -36 20 -49 32 -47 45 2 10 7 20 12 23 12 9 31 76 25 92 -3 8 -17 20
-31 26 -31 15 -31 45 1 70 25 20 32 42 18 56 -26 26 7 56 63 56 21 0 24 5 24
33 0 26 -10 43 -45 79 -46 47 -57 82 -33 106 23 23 66 13 109 -25 l41 -37 24
27 c28 33 60 34 105 4 39 -26 46 -54 25 -95 -14 -27 -14 -31 3 -46 17 -15 19
-14 37 19 21 39 51 46 76 18 28 -31 95 -219 83 -231 -4 -4 -43 -7 -88 -8 -70
-1 -89 3 -139 28 -32 16 -58 32 -58 36 0 4 -8 17 -18 29 l-17 23 -50 -19 c-60
-23 -77 -44 -53 -67 15 -15 19 -15 49 0 49 24 67 20 111 -29 23 -25 47 -45 54
-45 7 0 14 -6 17 -12 2 -9 21 -12 52 -11 63 2 79 -7 114 -68 28 -49 29 -50 43
-30 19 27 59 42 82 29 10 -5 26 -29 36 -53 23 -53 71 -90 129 -99 51 -8 115
-43 156 -86 17 -18 39 -30 55 -30 14 0 41 -11 61 -24 l36 -25 24 28 c13 15 31
30 39 33 12 4 9 13 -14 48 l-28 43 -13 -30 c-15 -34 -46 -49 -72 -35 -9 6 -26
27 -38 48 -20 35 -24 38 -71 38 -42 1 -57 6 -88 34 -20 17 -45 32 -56 32 -39
0 -70 41 -85 114 -13 62 -13 73 0 93 21 31 48 29 126 -11 54 -28 68 -31 82
-21 9 7 17 19 17 27 0 36 -349 484 -554 713 -808 896 -1711 1545 -2831 2035
-328 143 -816 309 -1190 405 -403 103 -1152 227 -1264 209 -24 -4 -41 -2 -45
5 -9 14 -103 15 -111 1 -10 -15 -43 -12 -53 6 -7 12 -40 17 -163 24 -140 9
-649 10 -794 3z m1655 -593 c29 -29 26 -68 -6 -76 -14 -4 -30 -2 -37 5 -21 21
-29 11 -22 -31 13 -81 25 -118 41 -118 8 0 28 -7 44 -15 25 -13 30 -22 30 -51
0 -19 -5 -44 -11 -56 -15 -28 4 -71 47 -103 55 -42 75 -68 73 -95 -2 -41 0
-47 19 -45 29 2 42 15 43 43 1 24 2 24 9 -7 7 -31 4 -39 -33 -83 -34 -39 -48
-48 -74 -48 -20 0 -41 -8 -54 -21 -30 -30 -41 -9 -36 68 4 50 1 65 -12 78 -25
21 -38 19 -57 -11 -12 -17 -20 -22 -27 -15 -12 12 35 86 64 102 11 5 16 16 13
24 -5 13 -11 12 -34 -5 -50 -35 -132 -19 -157 32 -6 12 -14 47 -16 76 -4 49
-2 54 24 69 16 10 29 21 29 26 0 18 -33 57 -49 57 -9 0 -39 14 -65 30 -40 26
-47 35 -44 58 2 20 9 28 27 30 13 2 26 12 28 23 3 10 12 19 20 19 12 0 14 -7
9 -30 -4 -24 -2 -32 12 -37 9 -3 25 -13 35 -21 15 -14 17 -13 17 4 0 10 7 27
15 38 8 11 12 30 9 46 -8 37 17 60 67 60 26 0 46 -7 59 -20z m195 -31 c5 -5
19 -9 31 -9 12 0 33 -10 48 -21 22 -17 26 -27 21 -50 -5 -23 -2 -30 22 -42 15
-9 39 -27 52 -41 14 -14 30 -26 36 -26 25 0 50 -42 50 -83 0 -39 2 -42 35 -50
19 -5 42 -8 50 -8 95 6 94 6 106 -17 6 -12 21 -33 33 -46 11 -12 21 -27 21
-33 0 -6 7 -16 15 -23 21 -17 19 -25 -10 -38 -40 -18 -30 -45 40 -107 70 -61
80 -88 41 -106 -57 -26 -137 22 -152 89 -9 45 -25 80 -46 104 l-19 22 -30 -32
c-36 -39 -46 -39 -93 -7 -20 14 -40 25 -44 25 -5 0 -35 21 -68 48 -79 63 -169
122 -187 122 -18 0 -27 21 -27 61 0 39 28 39 43 -1 14 -37 21 -37 53 -5 l25
25 -20 27 c-12 14 -21 39 -21 55 0 20 -12 42 -39 71 -38 40 -41 41 -54 23 -15
-21 -42 -13 -33 10 8 22 -4 44 -25 44 -18 0 -26 20 -14 32 9 8 149 -3 160 -13z
m-4583 -234 c39 -33 42 -34 69 -19 65 33 96 -34 37 -80 l-32 -25 23 -25 c20
-22 30 -25 62 -20 36 6 38 5 58 -34 11 -22 31 -48 43 -56 21 -15 24 -14 42 3
11 12 21 39 24 70 5 59 27 73 69 46 22 -15 24 -22 19 -56 -5 -31 -3 -39 9 -39
27 0 94 -39 106 -62 9 -16 9 -34 -1 -76 -10 -46 -10 -57 3 -69 10 -10 13 -27
10 -53 -3 -21 -1 -46 5 -56 5 -10 7 -27 2 -38 -11 -30 5 -66 30 -66 24 0 26
18 5 46 -18 24 -19 44 -1 44 7 0 19 -12 25 -27 7 -17 29 -36 54 -48 55 -27 75
-58 87 -135 6 -36 16 -82 22 -102 13 -45 -1 -68 -41 -68 -49 0 -71 11 -71 35
0 30 -24 49 -54 41 -15 -4 -28 0 -36 9 -17 21 -37 19 -50 -4 -15 -30 -13 -32
24 -26 48 9 106 -28 106 -69 0 -25 3 -28 23 -22 12 3 31 9 42 12 28 7 75 -31
75 -61 0 -36 -25 -48 -103 -50 -70 -1 -72 -2 -75 -27 -2 -17 7 -37 26 -60 38
-43 47 -72 27 -88 -13 -11 -20 -10 -43 7 -36 26 -121 168 -128 216 -8 47 -25
43 -43 -9 -18 -52 -9 -85 35 -128 29 -29 34 -38 25 -50 -10 -12 -18 -12 -59 0
-25 8 -52 12 -58 10 -6 -2 -26 -26 -44 -53 -27 -39 -33 -59 -35 -108 -1 -33
-5 -83 -10 -111 l-7 -52 33 -7 c58 -13 67 -56 18 -83 -29 -16 -30 -19 -24 -67
5 -42 3 -54 -15 -73 -22 -24 -29 -26 -55 -16 -13 5 -15 16 -9 63 4 40 1 73
-12 116 -10 33 -18 94 -18 135 l-1 75 -36 0 c-48 0 -71 20 -67 59 l3 31 67 0
c37 0 69 3 73 6 3 4 7 19 8 35 2 24 -3 30 -32 40 -51 16 -74 50 -66 94 9 48
17 54 46 32 32 -26 65 -35 95 -28 24 6 34 39 15 51 -10 5 -7 36 3 54 3 5 -5
16 -19 25 -19 13 -25 25 -25 54 0 44 -20 76 -59 97 -25 12 -31 12 -47 0 -26
-20 -28 -19 -63 16 -36 35 -39 61 -12 88 11 11 23 35 26 54 5 27 1 42 -25 81
-30 43 -34 46 -49 32 -36 -32 -84 -16 -142 48 -34 37 -36 52 -10 66 32 17 45
12 89 -31 35 -33 46 -38 57 -29 8 7 15 19 15 26 0 7 7 32 16 54 l16 39 36 -24
c20 -14 47 -25 59 -25 22 0 63 -42 63 -65 0 -16 48 -60 57 -52 3 4 9 27 13 53
6 36 2 57 -16 102 -13 32 -24 63 -24 70 0 14 -36 16 -45 2 -7 -12 -58 -13 -69
-2 -8 7 -13 8 -41 11 -8 0 -15 9 -15 19 0 19 -18 37 -80 81 -27 19 -35 21 -39
10 -7 -23 -58 -69 -77 -69 -9 0 -36 11 -60 25 -36 21 -43 23 -54 10 -16 -20
-54 -19 -107 1 -49 19 -57 44 -15 44 59 1 125 26 151 58 22 26 34 32 74 34
l48 3 -30 40 c-28 37 -40 83 -24 98 17 18 67 5 105 -28z m6106 -50 c41 -34 57
-76 42 -106 -11 -19 -10 -24 6 -36 69 -48 91 -95 58 -127 -22 -23 -49 -20 -80
9 -31 29 -37 30 -54 10 -14 -17 -8 -132 11 -192 11 -37 11 -44 -4 -61 -9 -10
-17 -31 -17 -45 0 -53 -49 -27 -173 91 l-29 27 -19 -23 c-21 -27 -11 -62 19
-62 24 0 73 -35 88 -62 16 -28 18 -94 4 -103 -23 -14 0 -149 27 -160 25 -9 28
3 10 34 -9 16 -17 38 -17 49 0 29 29 55 54 48 75 -21 70 -23 63 20 -4 21 -9
51 -13 67 -6 24 -3 29 24 38 46 16 73 74 70 150 -3 70 12 89 70 89 24 0 45 9
69 30 44 39 71 38 138 -7 42 -28 63 -52 85 -95 33 -62 38 -103 16 -111 -20 -8
-61 26 -75 60 -13 31 -46 57 -61 48 -18 -11 -10 -40 20 -77 22 -26 34 -56 43
-106 9 -48 22 -80 40 -102 15 -17 27 -41 27 -53 1 -12 7 -33 14 -47 11 -18 11
-30 3 -45 -26 -50 -75 -59 -109 -19 -13 14 -38 35 -57 46 l-34 21 -18 -22
c-23 -28 -23 -40 -4 -65 8 -11 15 -28 15 -39 0 -14 -6 -18 -27 -15 -19 2 -41
21 -74 63 -40 50 -48 67 -48 103 -2 82 -56 23 -72 -78 -5 -35 -19 -79 -30 -97
l-20 -33 25 -11 c27 -13 76 0 76 20 0 5 23 -14 50 -43 56 -59 62 -81 25 -98
-33 -15 -30 -48 5 -65 36 -17 60 -51 60 -82 0 -44 -14 -56 -64 -53 -40 1 -47
-2 -63 -28 -17 -30 -26 -34 -75 -30 -27 1 -29 -2 -42 -61 -15 -67 -86 -25 -86
51 0 29 8 48 30 74 17 18 37 50 45 70 14 34 14 38 -11 91 -15 31 -36 61 -47
66 -17 10 -24 6 -44 -20 -13 -17 -29 -31 -35 -31 -6 0 -26 14 -45 30 -43 38
-57 39 -49 3 23 -90 33 -71 -114 -206 -14 -13 -38 -40 -53 -60 -19 -26 -36
-37 -54 -37 -26 0 -122 50 -142 74 -6 7 -13 54 -14 102 l-2 89 38 18 c25 13
39 27 43 45 3 15 12 42 20 61 17 39 16 42 -14 34 -13 -3 -29 -20 -37 -39 -19
-46 -50 -52 -112 -22 -92 45 -100 53 -108 115 -4 31 -13 66 -21 78 -20 31 -8
57 24 53 31 -4 85 -88 75 -115 -5 -14 -1 -15 33 -10 21 4 40 11 42 16 2 6 14
26 27 46 15 21 22 42 18 52 -9 28 -45 63 -62 63 -9 0 -25 13 -35 29 -20 29
-101 71 -124 63 -7 -2 -12 -18 -12 -37 0 -40 -23 -63 -45 -45 -8 7 -15 25 -15
41 0 15 -5 31 -10 34 -6 3 -17 20 -26 36 -12 24 -13 37 -4 64 18 54 70 62 113
17 25 -27 30 -28 62 -18 39 12 42 18 20 36 -8 7 -15 24 -15 39 -1 18 -10 32
-32 46 -21 13 -38 36 -48 65 -29 81 -51 117 -75 128 -14 7 -25 18 -25 27 0 18
56 49 75 41 22 -8 55 -81 55 -120 0 -36 21 -66 45 -66 8 0 31 8 51 17 39 19
43 17 74 -37 7 -12 14 -10 39 14 l31 29 56 -19 c63 -21 78 -40 68 -88 -5 -31
-3 -36 26 -51 43 -22 50 -11 50 80 0 70 14 108 47 128 7 4 13 17 13 28 0 11 5
30 11 41 8 15 8 26 -1 43 -20 37 -5 93 26 101 33 8 42 -2 48 -56 6 -48 41 -90
76 -90 26 0 34 17 31 66 -1 27 5 55 19 78 11 20 20 45 20 56 0 22 25 50 45 50
7 0 27 -11 43 -25z m175 -42 c11 -10 35 -18 55 -18 34 0 37 -3 70 -68 19 -37
32 -74 28 -82 -16 -44 -117 -18 -144 37 -7 15 -21 29 -31 33 -41 13 -53 115
-14 115 9 0 25 -8 36 -17z m-582 -19 c13 -11 16 -25 13 -44 -4 -16 0 -37 9
-51 15 -24 18 -104 4 -126 -10 -16 -79 -24 -119 -13 -35 10 -61 38 -84 91 -11
25 -15 26 -54 19 -38 -7 -46 -5 -74 21 -26 23 -29 31 -20 46 23 38 102 22 133
-26 10 -17 27 -27 46 -29 17 -2 38 -11 48 -20 35 -31 57 37 27 83 -31 47 -26
65 17 65 20 0 44 -7 54 -16z m-6286 -114 c9 -40 36 -53 94 -45 25 3 58 2 72
-4 41 -15 69 -70 67 -128 -3 -62 25 -104 92 -138 54 -27 61 -44 46 -99 -9 -30
-18 -42 -40 -49 -28 -9 -33 -7 -76 43 -43 49 -48 52 -69 40 -18 -9 -22 -17
-16 -38 16 -64 12 -77 -24 -82 -33 -5 -34 -6 -18 -22 24 -23 82 -33 123 -20
39 12 50 5 82 -49 28 -46 28 -77 0 -128 l-21 -40 34 -36 c27 -29 104 -75 125
-75 3 0 9 11 14 24 6 17 21 28 48 36 52 14 72 5 72 -31 0 -16 8 -36 18 -44 73
-63 75 -68 36 -115 -21 -24 -25 -37 -20 -62 3 -18 1 -37 -5 -44 -16 -19 -59
-17 -90 4 -36 23 -189 179 -189 192 0 5 -4 10 -10 10 -5 0 -10 -14 -10 -30 0
-18 -9 -40 -21 -53 -17 -19 -20 -29 -14 -67 4 -25 8 -76 9 -114 1 -74 -9 -90
-38 -60 -13 12 -15 26 -10 59 5 40 3 46 -30 81 -38 40 -76 109 -76 136 0 19
18 35 45 40 15 2 20 11 20 33 0 26 -4 30 -31 33 -22 2 -38 -5 -62 -28 -18 -16
-32 -37 -32 -45 0 -8 -7 -15 -16 -15 -12 0 -15 6 -9 23 3 12 9 33 12 47 4 14
15 37 26 52 26 35 16 47 -43 46 -45 0 -51 -3 -70 -32 -23 -39 -57 -56 -110
-56 -35 0 -40 3 -46 27 -4 14 -2 53 4 87 11 58 11 61 -14 87 -14 14 -31 50
-39 80 -8 30 -24 61 -35 71 -37 30 -26 60 33 92 45 24 57 27 75 17 26 -14 37
-34 46 -83 6 -31 12 -39 34 -44 15 -3 37 -10 50 -15 31 -12 32 -12 32 14 0 13
-11 34 -25 47 -21 19 -25 33 -25 76 0 41 4 55 18 63 10 5 24 28 30 49 9 31 19
43 43 51 25 9 30 15 27 38 -3 26 -7 28 -53 31 -66 4 -89 25 -80 72 3 19 8 53
10 75 4 49 3 45 14 45 5 0 12 -14 16 -30z m5468 -164 c21 -20 46 -36 56 -36
28 0 38 -19 44 -87 7 -62 6 -63 -18 -63 -14 0 -25 5 -25 10 0 6 -9 10 -20 10
-23 0 -25 -13 -9 -76 11 -44 16 -47 74 -56 17 -3 20 -12 23 -58 4 -70 -12 -94
-61 -92 l-36 1 16 -27 c32 -56 -14 -116 -58 -76 -10 9 -19 28 -19 41 0 12 -5
23 -10 23 -6 0 -8 -11 -5 -25 3 -14 8 -37 11 -52 3 -15 25 -56 50 -90 24 -34
44 -67 44 -73 0 -6 -17 -27 -37 -46 -37 -34 -38 -35 -18 -50 33 -25 66 -14 79
26 6 19 18 36 26 37 21 4 110 -75 110 -98 0 -33 -39 -24 -52 12 -7 20 -15 28
-25 25 -8 -3 -21 -6 -29 -6 -8 0 -14 -4 -14 -10 0 -5 9 -10 20 -10 31 0 25
-35 -10 -60 l-30 -22 -33 21 c-57 35 -102 89 -102 123 0 39 -22 53 -68 44 -43
-8 -45 -16 -16 -56 19 -25 20 -32 9 -59 -9 -23 -9 -38 -1 -62 15 -43 14 -93
-2 -132 -17 -39 -42 -63 -52 -47 -3 5 -29 10 -57 10 l-51 0 6 84 c6 72 4 91
-14 132 -24 53 -22 114 5 143 22 24 20 84 -4 131 -41 80 -14 126 55 93 23 -11
39 -13 45 -7 16 16 30 107 18 121 -13 16 -74 17 -83 2 -18 -28 -50 -27 -102 3
-50 28 -53 28 -82 13 -41 -20 -49 -40 -40 -88 9 -51 3 -67 -26 -67 -13 0 -36
-5 -51 -10 -23 -9 -31 -8 -47 9 -18 18 -19 23 -7 52 13 31 13 33 -18 59 -38
32 -41 59 -7 90 38 36 33 49 -17 40 -79 -15 -122 23 -90 79 29 52 84 36 121
-36 15 -29 22 -29 73 3 48 31 85 33 128 8 34 -21 48 -13 32 19 -34 70 -17 93
73 99 33 2 75 12 94 21 l33 17 -6 -34 c-6 -30 -4 -33 16 -31 13 1 34 -5 47
-13 22 -13 26 -13 38 4 15 21 17 111 2 173 -15 67 -5 80 34 43 17 -17 49 -47
70 -66z m-5927 76 c20 -13 67 -109 62 -124 -6 -14 -151 -48 -204 -48 -26 0
-64 40 -64 66 0 49 72 56 131 12 30 -23 31 -23 45 -4 19 27 18 43 -6 56 -28
15 -26 50 3 50 12 0 27 -4 33 -8z m394 -86 c53 -39 60 -59 29 -92 -24 -25 -66
-32 -99 -14 -20 11 -70 94 -70 117 0 20 60 44 80 32 8 -5 35 -24 60 -43z
m3793 5 c14 -6 28 -20 32 -33 4 -13 14 -31 22 -40 16 -18 10 -38 -11 -38 -23
0 -76 -31 -76 -45 0 -7 16 -16 36 -20 53 -10 73 -26 85 -67 12 -47 57 -75 90
-58 12 7 20 20 19 33 -5 54 9 61 47 25 28 -26 29 -39 3 -61 -22 -18 -26 -57
-9 -74 14 -14 -15 -43 -44 -43 -12 0 -28 -4 -36 -9 -24 -15 6 -41 47 -41 19 0
50 -9 68 -21 27 -16 34 -27 34 -52 0 -45 -10 -55 -55 -59 -32 -2 -40 -7 -40
-23 0 -16 6 -19 25 -17 14 2 33 11 44 20 17 16 19 16 30 -2 6 -10 20 -30 32
-45 12 -14 24 -44 27 -65 7 -44 22 -58 53 -50 16 4 24 -3 39 -35 10 -23 24
-46 32 -52 16 -14 17 -39 2 -39 -7 0 -27 17 -44 38 l-33 37 -24 -22 c-31 -30
-52 -29 -72 2 -9 14 -23 25 -30 25 -7 0 -25 9 -39 20 -46 36 -51 16 -10 -42
l26 -39 -25 -27 c-14 -15 -30 -36 -36 -47 -9 -17 -11 -16 -25 17 -8 20 -22 40
-30 44 -8 5 -20 26 -25 47 -10 35 -9 39 15 54 l25 17 -55 27 c-39 20 -59 38
-71 63 -9 20 -24 36 -32 36 -8 0 -28 23 -45 50 -20 32 -38 50 -50 50 -22 0
-24 -24 -8 -100 8 -37 8 -55 0 -63 -16 -16 -39 9 -47 52 -11 61 -29 81 -74 81
-29 0 -48 8 -73 30 -19 16 -37 27 -40 23 -14 -14 -37 22 -37 58 0 39 -15 58
-32 41 -6 -6 -4 -20 6 -40 l16 -30 -53 -5 c-28 -3 -64 -8 -79 -12 -27 -7 -28
-6 -28 28 0 37 30 67 68 67 11 0 27 11 36 25 15 23 15 27 -1 51 -13 21 -14 32
-6 54 13 34 7 45 -32 54 -69 17 -94 58 -59 97 11 12 25 16 43 13 18 -4 32 0
40 10 20 24 54 19 83 -11 46 -50 78 -106 72 -127 -7 -30 31 -53 52 -31 9 8 23
15 32 15 12 0 9 7 -11 28 -23 24 -27 36 -27 90 0 56 2 63 26 75 23 12 24 15
10 26 -22 18 -20 41 2 41 22 0 63 -42 86 -87 17 -33 35 -43 37 -20 9 135 20
151 82 128z m429 -401 l45 -39 29 30 c25 26 35 30 74 27 44 -3 45 -4 47 -38 1
-19 4 -47 8 -62 7 -25 5 -28 -16 -28 -36 0 -143 36 -147 49 -2 6 -12 11 -23
11 -19 0 -99 65 -99 81 0 21 41 6 82 -31z m-62 -42 c5 -7 31 -39 56 -70 l46
-58 57 0 c34 0 65 -6 78 -15 25 -18 47 -76 39 -103 -8 -25 -44 -62 -59 -62
-22 0 -85 70 -98 108 -16 49 -29 66 -43 52 -13 -13 -39 -13 -70 1 -29 14 -56
73 -56 124 0 28 4 35 20 35 10 0 24 -6 30 -12z m-5260 -105 c58 -27 60 -29 60
-65 0 -27 6 -41 20 -50 24 -15 27 -66 5 -74 -21 -8 -19 -38 5 -59 30 -27 25
-45 -13 -45 -18 0 -42 -7 -54 -15 -18 -13 -22 -13 -33 0 -11 13 -8 30 14 93
40 115 40 116 -19 122 -88 10 -109 33 -85 94 12 33 26 32 100 -1z m806 -121
c6 -4 13 -15 17 -24 3 -10 13 -18 21 -18 8 0 26 -14 40 -32 l25 -32 19 24 c22
28 47 22 64 -14 23 -52 -27 -86 -130 -86 -47 0 -75 47 -67 113 4 29 2 47 -5
47 -5 0 -10 7 -10 15 0 16 9 19 26 7z m-916 -236 c6 -19 21 -38 35 -44 31 -15
33 -52 3 -78 -11 -10 -36 -52 -55 -92 -19 -40 -41 -76 -49 -79 -19 -7 -57 13
-96 49 -58 54 -16 145 73 157 38 5 44 10 47 31 10 97 23 114 42 56z m4905 12
c14 -31 48 -34 90 -8 19 12 35 18 36 13 1 -4 2 -17 3 -28 1 -13 9 -20 24 -21
33 -2 50 -31 44 -76 l-5 -38 47 6 c62 9 80 -6 73 -61 -5 -33 -1 -48 24 -84 41
-62 35 -101 -17 -101 -52 0 -90 71 -64 120 8 15 3 24 -30 50 -53 42 -95 39
-120 -8 -18 -34 -21 -146 -5 -205 7 -28 7 -28 -16 -15 -13 7 -27 18 -31 23
-10 14 -9 92 1 139 9 37 8 40 -36 84 -49 49 -49 49 -45 170 2 65 11 77 27 40z
m-3125 -128 c10 -5 30 -31 45 -57 16 -26 41 -58 57 -71 25 -21 28 -30 28 -80
-1 -48 -5 -62 -30 -91 -15 -18 -33 -30 -38 -27 -6 4 -30 10 -54 15 -24 5 -50
12 -59 15 -9 4 -23 1 -30 -6 -19 -18 -67 -48 -76 -48 -4 0 -16 21 -27 46 -15
36 -16 50 -7 70 6 14 11 40 11 59 0 30 20 65 39 65 16 0 31 -26 31 -54 0 -17
7 -39 14 -49 13 -17 15 -17 47 2 19 12 42 21 52 21 29 0 19 18 -20 39 -43 22
-103 75 -103 90 0 5 14 23 31 40 32 32 57 38 89 21z m3104 -105 c26 -26 28
-52 6 -99 -11 -26 -20 -66 -20 -94 0 -27 -6 -56 -15 -68 -15 -19 -15 -19 -30
0 -18 24 -19 74 -3 128 9 31 9 47 -1 74 -11 31 -11 38 5 55 21 23 37 24 58 4z
m-5086 -110 c2 -33 -2 -45 -23 -65 -18 -17 -25 -34 -25 -60 0 -24 -7 -43 -20
-55 -24 -22 -26 -63 -4 -72 9 -3 26 5 43 21 22 21 37 26 77 26 57 0 74 -12 74
-52 0 -22 -7 -31 -32 -42 -18 -8 -44 -24 -58 -35 l-25 -21 36 -32 c45 -41 53
-62 35 -96 -7 -15 -19 -39 -25 -54 -12 -32 -44 -37 -75 -13 -25 19 -36 11 -36
-26 0 -41 -26 -99 -44 -99 -31 0 -64 23 -79 56 -15 30 -21 34 -56 34 -30 0
-44 6 -55 22 -27 39 -20 48 35 48 l51 0 -7 48 c-5 39 -3 53 13 72 18 22 21 23
66 10 26 -7 49 -11 51 -8 3 2 8 19 11 36 6 28 3 33 -22 42 -16 6 -39 21 -51
32 -19 17 -26 19 -53 10 -22 -8 -38 -8 -55 0 -34 15 -38 36 -15 65 23 29 25
54 8 71 -9 9 -9 15 -1 23 8 8 14 5 23 -11 7 -14 19 -20 33 -18 18 2 23 11 25
41 3 34 8 40 49 60 31 15 49 32 59 55 11 28 18 33 41 30 25 -3 28 -8 31 -43z
m375 0 c20 -4 32 -16 42 -37 16 -40 12 -51 -26 -65 -28 -11 -29 -14 -18 -35 6
-13 25 -38 41 -57 17 -19 27 -40 24 -48 -4 -8 -9 -26 -12 -39 -3 -13 -12 -24
-19 -24 -22 0 -64 58 -70 98 -4 20 -11 50 -16 66 -5 16 -9 39 -9 51 0 13 -7
28 -15 35 -14 12 -21 61 -9 72 3 3 17 2 32 -3 15 -5 40 -11 55 -14z m7966 1
c15 -8 33 -22 40 -30 10 -11 24 -14 50 -10 28 4 42 1 64 -16 35 -28 56 -68 55
-108 -1 -34 16 -62 38 -62 7 0 29 15 47 34 41 40 92 55 114 33 13 -13 13 -20
2 -51 -12 -33 -11 -37 7 -50 10 -8 38 -19 61 -25 57 -15 99 -53 134 -122 61
-121 20 -256 -61 -199 -16 12 -37 34 -47 50 -27 46 -68 53 -138 24 -44 -18
-87 -18 -131 1 -55 23 -54 -4 3 -63 54 -56 92 -72 112 -48 17 20 61 20 109 1
20 -9 47 -13 59 -10 45 11 90 -20 138 -94 43 -68 73 -88 90 -61 32 51 165 -98
165 -184 0 -34 -28 -47 -82 -40 -38 5 -48 2 -76 -21 -51 -43 -38 -72 18 -40
42 24 88 19 121 -14 31 -32 37 -65 14 -94 -8 -12 -11 -31 -8 -53 15 -92 -87
-82 -136 13 -7 13 -27 27 -51 33 -22 6 -40 16 -40 23 0 7 -9 31 -20 52 -11 22
-25 57 -31 78 -8 32 -14 37 -40 37 -35 0 -99 -25 -99 -39 0 -5 10 -13 23 -17
55 -17 74 -65 37 -96 -22 -20 -35 -60 -26 -84 8 -21 50 -11 89 22 49 41 70 15
46 -58 -11 -34 -10 -40 7 -59 35 -39 51 -41 78 -14 38 38 62 33 90 -22 9 -18
16 -51 16 -74 0 -31 8 -53 33 -88 18 -25 38 -58 45 -73 6 -15 29 -36 51 -48
45 -23 76 -62 67 -85 -10 -26 -57 -17 -102 21 -24 19 -48 33 -53 30 -5 -4 -9
-27 -9 -53 0 -34 -5 -50 -19 -60 -38 -26 -42 -34 -37 -61 8 -41 -24 -66 -76
-59 -22 3 -40 3 -40 0 0 -15 24 -44 53 -62 53 -32 63 -60 39 -107 -11 -21 -23
-55 -27 -74 -13 -63 -68 -100 -151 -100 -50 0 -63 -69 -20 -109 32 -30 38 -57
17 -82 l-16 -20 -40 31 c-22 18 -52 38 -67 46 -35 18 -60 66 -52 98 3 13 23
41 45 62 46 45 48 56 14 89 -28 29 -57 32 -81 8 -9 -10 -38 -20 -63 -23 -56
-6 -65 -31 -26 -75 37 -44 42 -72 16 -99 -24 -26 -103 -52 -120 -41 -27 16
-40 64 -38 141 l2 79 -35 17 c-48 24 -60 44 -60 100 0 47 1 48 53 77 85 49 84
47 69 62 -10 11 -18 10 -44 -5 -18 -11 -59 -21 -99 -24 l-69 -5 -31 -49 c-37
-58 -56 -59 -82 -5 -9 20 -21 37 -26 37 -5 0 -16 3 -25 6 -12 5 -17 -3 -22
-34 -6 -41 -26 -64 -82 -98 -36 -21 -40 -34 -14 -41 21 -5 26 -38 11 -75 -14
-33 -28 -35 -52 -7 -10 11 -25 18 -35 15 -9 -2 -32 -8 -50 -11 l-33 -7 6 -52
c6 -49 5 -54 -19 -69 -14 -9 -39 -17 -56 -17 -17 0 -47 -7 -67 -15 -52 -22
-71 -19 -109 19 -45 45 -47 95 -5 137 37 37 82 38 127 4 30 -23 34 -24 48 -9
19 19 19 18 1 54 -11 22 -29 33 -70 46 l-54 17 -47 -36 c-67 -52 -119 -48
-143 11 -14 34 -2 76 28 91 19 10 80 3 126 -14 13 -5 8 5 -18 32 -26 27 -43
57 -52 94 -27 100 -17 129 43 129 18 0 53 5 77 11 36 9 50 8 74 -4 17 -9 33
-12 36 -8 2 5 7 33 11 64 l7 56 -37 17 c-29 14 -42 31 -68 86 -29 63 -33 68
-63 68 -37 0 -60 21 -90 83 -17 34 -32 48 -85 74 -90 44 -104 63 -97 136 6 64
27 97 61 97 31 0 43 -11 61 -53 18 -44 71 -99 112 -116 16 -6 37 -26 48 -44
10 -18 29 -44 43 -59 23 -25 33 -28 92 -28 82 0 101 -13 109 -71 5 -37 10 -43
26 -40 57 11 91 4 134 -27 65 -47 98 -41 45 9 -36 33 -45 63 -38 120 6 45 8
49 31 44 14 -2 31 -9 38 -15 20 -16 45 -88 48 -135 2 -32 8 -43 30 -53 36 -17
67 -1 67 36 1 33 21 62 44 62 14 0 16 6 10 38 -9 49 -7 47 -68 75 -53 25 -68
35 -137 95 -21 19 -43 31 -49 27 -5 -3 -10 -29 -10 -56 0 -61 -12 -68 -74 -41
-34 16 -53 18 -82 12 -33 -8 -40 -6 -65 20 -16 16 -29 37 -29 47 0 10 -7 27
-15 37 -13 18 -16 18 -39 2 -31 -20 -75 -21 -82 -2 -9 23 19 71 43 74 12 2 31
-7 47 -22 14 -14 29 -26 34 -26 14 0 34 27 57 74 26 53 49 56 107 11 46 -34
70 -41 102 -29 13 5 8 14 -24 43 -30 26 -45 50 -55 86 -7 28 -19 65 -26 83
-20 49 1 74 86 99 24 7 29 14 27 33 -3 28 33 70 60 70 38 0 78 -29 78 -56 0
-33 55 -86 84 -82 33 5 41 78 15 130 -26 52 -19 104 17 120 26 12 30 34 11 59
-15 19 -136 44 -177 35 -33 -6 -50 13 -50 56 0 13 -9 37 -20 53 -28 42 -25 69
11 110 30 34 58 43 94 29 22 -9 45 -57 45 -94 0 -49 31 -35 51 23 l18 48 -50
55 c-48 53 -49 56 -49 118 0 71 12 114 37 134 21 15 18 15 52 -2z m-7750 -267
c18 -17 21 -27 16 -63 -5 -32 -3 -45 9 -55 23 -20 19 -54 -9 -79 -31 -27 -33
-70 -4 -129 23 -49 21 -65 -14 -87 -21 -14 -27 -14 -65 1 -55 21 -60 43 -27
108 22 44 25 61 20 99 -8 48 -28 74 -65 81 -34 7 -34 11 -1 31 17 10 36 32 42
48 27 67 58 82 98 45z m-241 -191 c21 -26 39 -43 72 -68 20 -15 23 -22 14 -37
-13 -21 -71 -30 -87 -14 -18 18 -27 12 -27 -17 0 -34 -16 -52 -47 -52 -32 0
-63 34 -63 70 0 34 43 125 62 133 29 12 59 6 76 -15z m7516 -14 c9 -3 16 -13
16 -21 0 -9 19 -32 41 -53 l42 -38 -24 -16 c-33 -21 -130 -32 -157 -17 -33 17
-27 56 14 107 38 46 42 48 68 38z m-5448 -55 c20 -12 36 -32 40 -47 11 -52 14
-56 26 -44 22 22 56 12 102 -32 70 -66 48 -96 -69 -96 -62 0 -66 1 -60 20 3
11 2 27 -2 35 -8 14 -11 13 -27 -4 -16 -18 -17 -28 -8 -98 6 -43 8 -90 5 -105
-4 -22 0 -29 28 -43 19 -10 48 -32 64 -49 33 -34 72 -66 80 -66 15 0 1 30 -20
44 -14 9 -25 23 -25 31 0 8 -18 24 -40 35 -64 33 -78 80 -35 118 14 12 25 29
25 37 0 21 24 19 44 -4 10 -11 24 -17 32 -14 8 3 14 -1 14 -10 0 -19 18 -34
51 -42 21 -5 27 -1 39 27 17 38 61 59 88 42 9 -6 29 -32 45 -58 28 -45 28 -47
12 -72 -13 -20 -14 -28 -5 -40 20 -23 83 -59 87 -48 11 32 31 59 45 62 16 3
77 -49 95 -82 15 -27 -2 -71 -33 -85 -34 -15 -21 -31 25 -31 62 0 96 -46 89
-120 -4 -43 -16 -46 -59 -16 -19 13 -66 41 -106 61 -73 37 -97 61 -109 109 -9
36 -20 25 -27 -26 -6 -46 11 -91 38 -102 9 -3 33 -6 54 -6 27 0 44 -7 60 -24
47 -50 -1 -87 -59 -46 l-30 21 -26 -20 c-15 -12 -33 -21 -40 -21 -8 0 -14 -4
-14 -10 0 -14 59 -42 71 -34 17 10 79 -29 86 -54 3 -12 0 -29 -7 -37 -19 -23
4 -46 41 -38 61 12 107 -17 120 -77 11 -47 4 -80 -15 -80 -7 0 -28 16 -47 36
-38 41 -84 64 -127 64 -20 0 -43 14 -81 50 -58 54 -75 60 -91 31 -18 -35 -11
-55 32 -92 53 -46 48 -69 -17 -69 -38 0 -45 -3 -45 -19 0 -14 -5 -18 -19 -14
-29 7 -33 -12 -6 -27 34 -18 32 -53 -4 -79 -16 -12 -39 -21 -50 -21 -12 0 -21
-4 -21 -10 0 -5 10 -10 23 -10 12 0 40 -9 61 -21 45 -24 72 -19 56 10 -25 48
1 114 33 82 15 -15 38 -14 75 5 42 21 85 2 90 -39 3 -24 -1 -28 -28 -34 -26
-5 -29 -8 -16 -15 22 -12 49 -66 42 -84 -3 -8 -17 -14 -31 -14 -20 0 -25 -5
-25 -24 0 -14 -4 -28 -10 -31 -12 -7 17 -50 78 -118 49 -54 51 -80 9 -85 -23
-3 -36 5 -65 36 -21 22 -54 47 -74 55 -35 15 -39 15 -48 -2 -13 -25 -55 -32
-74 -13 -12 13 -20 13 -45 2 -26 -10 -35 -10 -63 7 -40 23 -58 82 -27 90 23 6
23 7 3 38 -28 44 -91 30 -114 -25 -11 -28 -11 -33 9 -54 11 -12 21 -28 21 -34
0 -7 13 -30 29 -53 39 -53 47 -93 26 -125 -15 -23 -15 -27 1 -54 15 -24 16
-34 6 -55 -7 -14 -12 -42 -12 -61 0 -42 -20 -53 -55 -30 -30 20 -32 40 -5 59
16 11 20 24 18 57 -2 45 -19 63 -71 75 -28 7 -28 7 -21 -34 9 -53 -5 -71 -49
-61 -17 3 -42 2 -55 -4 -18 -7 -31 -6 -57 9 -70 37 -50 90 29 79 l41 -5 -45
40 c-25 22 -57 43 -73 46 -15 4 -32 15 -37 25 -13 25 -13 83 1 97 7 7 2 22
-16 49 -23 34 -26 46 -21 87 l7 47 -79 0 c-76 0 -81 2 -140 41 -73 49 -78 70
-22 92 53 21 54 48 1 81 -22 14 -42 30 -46 35 -3 6 -18 3 -38 -9 -51 -31 -82
-26 -112 17 -14 21 -25 48 -25 60 0 21 -14 36 -35 39 -5 0 -16 2 -22 2 -18 3
-16 27 3 43 13 10 21 10 47 -3 18 -9 48 -16 66 -15 21 0 37 -5 39 -13 3 -8 21
-32 41 -53 33 -35 38 -37 50 -23 12 14 8 21 -27 54 -35 32 -41 44 -47 95 l-7
59 -47 -7 c-60 -8 -94 15 -94 65 0 76 97 83 158 12 l22 -26 17 32 c9 18 21 32
26 32 18 0 10 26 -14 49 -20 19 -28 21 -44 12 -30 -16 -73 -13 -112 7 -19 11
-52 22 -73 25 -51 8 -67 23 -67 60 0 58 65 91 92 47 16 -25 32 -25 75 1 27 17
33 27 31 47 -3 23 4 30 47 51 93 44 141 26 139 -54 0 -24 -6 -51 -13 -58 -11
-15 -11 -19 18 -142 7 -27 10 -30 44 -27 24 2 51 -5 76 -19 55 -31 76 -23 75
27 -1 58 -35 104 -78 104 -20 0 -40 8 -51 21 -16 17 -17 25 -7 51 9 24 8 36
-3 58 -8 15 -21 30 -30 33 -8 4 -15 16 -15 27 0 17 6 20 39 20 22 0 51 4 64 9
29 11 92 -3 115 -25 27 -27 26 -4 -1 24 -30 31 -34 57 -12 87 10 12 13 30 9
52 -16 87 79 83 126 -5 l19 -37 1 32 c0 23 6 33 21 38 30 10 19 37 -23 57 -43
20 -57 42 -74 116 -17 70 -10 86 32 79 20 -3 39 0 51 8 25 20 40 18 79 -6z
m-3075 -168 c31 -31 39 -46 39 -75 0 -27 9 -48 32 -77 30 -38 31 -42 19 -72
-7 -18 -17 -53 -21 -79 -5 -26 -14 -56 -20 -67 -14 -27 -4 -64 26 -92 13 -12
24 -28 24 -35 0 -35 -91 -25 -135 16 -16 15 -51 37 -76 48 -62 26 -89 66 -89
130 0 66 7 82 37 82 40 0 82 -31 104 -78 12 -23 26 -41 33 -39 6 2 12 24 14
50 4 55 -36 143 -71 156 -40 16 -50 36 -42 91 12 90 61 106 126 41z m213 3
c32 -12 18 -51 -38 -98 -29 -25 -58 -46 -64 -46 -6 0 -20 20 -32 44 -28 55
-16 86 33 87 18 0 41 4 52 9 25 11 30 11 49 4z m5827 -84 c21 -25 31 -29 57
-24 27 5 37 0 82 -42 29 -27 58 -61 67 -77 11 -22 20 -28 35 -24 49 13 113
-56 102 -111 -10 -49 2 -76 45 -100 43 -24 51 -38 51 -87 0 -39 12 -49 59 -51
43 -1 63 -27 55 -69 -5 -26 1 -39 30 -74 49 -58 46 -111 -7 -111 -26 0 -16
-23 15 -34 20 -7 32 -4 56 14 17 13 38 20 46 17 17 -7 76 -94 76 -111 -1 -20
-70 -86 -105 -100 -33 -14 -36 -14 -50 7 -8 12 -15 28 -15 37 0 31 -30 60 -62
60 -29 0 -49 17 -112 91 -13 16 -20 17 -37 9 -33 -18 -35 -41 -6 -64 34 -27
34 -51 2 -72 -36 -24 -59 -15 -69 29 -11 43 -35 54 -80 37 -25 -9 -28 -14 -23
-44 5 -29 2 -35 -16 -40 -35 -9 -91 -7 -126 5 -25 9 -38 9 -55 -1 -13 -6 -38
-10 -57 -8 -31 3 -34 1 -32 -22 2 -40 27 -100 40 -100 7 0 17 9 23 20 7 13 21
20 42 20 34 0 57 -23 58 -57 0 -27 18 -39 33 -24 18 18 55 13 62 -9 3 -11 3
-24 0 -30 -6 -10 29 -68 50 -82 17 -13 35 -9 35 7 0 8 5 15 10 15 6 0 10 -9
10 -21 0 -28 18 -59 35 -59 21 0 44 -27 55 -68 5 -20 23 -49 39 -64 20 -19 27
-34 24 -48 -3 -11 -6 -20 -7 -20 -2 0 -37 18 -80 41 -43 23 -84 38 -93 35 -24
-9 -98 30 -114 61 -11 20 -11 27 -1 30 15 6 16 40 1 82 -8 23 -17 31 -34 31
-35 0 -55 -10 -55 -29 0 -9 -10 -22 -21 -30 l-22 -13 27 -24 c31 -29 33 -40 7
-47 -29 -7 -51 11 -51 42 0 38 -21 45 -51 17 -35 -32 -56 -38 -74 -20 -11 11
-42 17 -105 20 -155 6 -197 46 -174 163 7 36 14 47 30 49 31 4 84 -60 84 -102
0 -29 5 -36 31 -45 42 -14 79 -14 79 1 0 17 33 88 41 88 4 0 10 -25 14 -56 4
-37 12 -57 23 -61 9 -4 18 -1 20 5 2 7 14 12 27 12 13 0 27 5 30 10 3 6 17 10
31 10 20 0 24 5 24 29 0 50 -27 70 -95 73 -33 2 -63 8 -67 13 -4 6 -8 26 -8
45 0 28 -6 38 -30 52 -35 20 -39 38 -10 38 34 0 35 28 2 58 -29 27 -31 28 -46
10 -23 -27 -44 -22 -80 17 -18 19 -37 35 -43 35 -5 0 -16 18 -23 40 -11 34
-17 40 -41 40 -15 0 -31 5 -34 10 -9 14 -25 12 -25 -3 0 -7 -6 -21 -13 -31
-12 -16 -15 -16 -42 -2 -17 9 -37 16 -45 16 -22 0 -40 20 -40 43 0 14 -4 17
-17 12 -10 -5 -34 -9 -53 -10 -19 -1 -42 -5 -51 -9 -10 -4 -20 -3 -24 3 -3 6
-17 11 -31 11 -14 0 -40 11 -57 24 -18 13 -43 26 -57 28 -31 4 -37 31 -16 63
24 37 60 42 101 14 19 -13 38 -33 41 -44 7 -22 22 -35 42 -35 19 0 14 65 -9
109 -23 45 -19 62 14 54 35 -9 47 -23 41 -48 -4 -18 4 -33 35 -64 55 -55 65
-53 58 8 -8 64 0 90 31 102 25 10 25 11 -57 89 -88 83 -93 97 -53 143 24 27
46 21 101 -29 52 -47 77 -50 66 -7 -16 65 40 86 105 38 41 -30 56 -31 63 -5
10 40 56 19 66 -31 8 -38 9 -39 125 -20 87 14 92 18 60 43 -59 47 -65 138 -9
138 46 0 43 26 -14 121 -19 33 -20 39 -7 52 25 24 87 12 117 -23z m-5602 -96
c17 -14 43 -46 57 -70 20 -34 34 -46 64 -54 47 -13 87 -52 100 -99 19 -70 8
-101 -37 -101 -26 0 -98 33 -126 59 -18 15 -20 14 -43 -12 -13 -16 -24 -41
-24 -57 0 -44 -34 -58 -71 -31 -15 12 -42 21 -58 21 -16 0 -42 5 -58 12 -15 6
-51 10 -80 9 l-51 -3 15 49 c9 26 22 62 29 80 8 20 11 50 7 81 -5 42 -2 52 17
69 43 41 104 35 116 -11 9 -38 1 -60 -29 -74 -46 -22 -26 -73 23 -57 22 7 35
41 49 125 15 92 45 111 100 64z m6930 -353 c27 -15 41 -16 67 -8 27 8 39 6 68
-11 27 -16 52 -21 113 -20 58 0 89 -5 123 -21 68 -31 93 -28 113 15 15 31 21
35 43 30 49 -13 154 -68 164 -86 15 -28 -6 -64 -46 -83 -32 -16 -46 -37 -24
-37 16 0 80 -70 80 -88 0 -10 -6 -24 -12 -30 -16 -16 -40 -114 -41 -166 -1
-35 5 -44 49 -84 27 -25 68 -54 91 -64 80 -35 92 -67 45 -119 -23 -26 -35 -31
-78 -32 -41 -2 -56 3 -82 25 -18 15 -41 29 -51 33 -11 3 -28 26 -40 50 -19 40
-20 51 -10 130 6 47 8 93 5 101 -7 19 -61 18 -80 -2 -20 -19 -20 -23 -1 -44 8
-9 17 -42 21 -74 8 -63 0 -76 -43 -76 -20 0 -40 8 -133 53 -14 7 -34 28 -44
48 l-19 35 31 44 c34 46 40 70 18 70 -7 0 -25 11 -40 25 -21 20 -26 33 -26 73
0 43 4 52 35 79 42 37 39 51 -17 88 -35 23 -42 25 -55 12 -8 -8 -16 -40 -18
-77 -2 -34 -6 -64 -9 -67 -3 -3 -18 -6 -33 -7 -46 -4 -73 -25 -93 -72 -22 -50
-48 -57 -90 -24 -20 16 -41 20 -103 20 -46 0 -92 6 -114 15 -21 9 -67 15 -112
15 -79 0 -101 9 -101 41 0 22 10 28 45 31 35 3 58 46 50 92 -5 24 -3 35 8 39
8 3 20 21 26 40 11 31 16 35 59 42 62 10 112 10 140 0 17 -6 22 -4 22 11 0 23
29 54 49 54 9 -1 31 -9 50 -19z m-6629 -238 c32 -65 65 -84 48 -29 -25 79 57
115 137 60 20 -14 45 -23 54 -21 50 11 104 -56 76 -96 -22 -31 -19 -37 20 -37
42 0 53 19 37 62 -16 43 -6 56 54 75 60 19 91 10 113 -31 7 -11 25 -30 40 -41
16 -11 47 -43 69 -71 37 -47 101 -88 170 -109 31 -9 28 -31 -10 -66 -39 -35
-83 -39 -91 -8 -5 17 -11 20 -29 15 -13 -4 -39 -10 -58 -13 -20 -3 -44 -11
-55 -19 -27 -20 -5 -39 47 -39 32 0 45 -6 59 -25 23 -30 46 -153 30 -158 -18
-6 -12 -32 7 -32 27 0 42 -20 42 -54 0 -23 -8 -36 -30 -51 -36 -24 -40 -64
-10 -102 23 -29 26 -71 8 -119 -10 -27 -8 -35 11 -63 12 -17 31 -31 41 -31 26
0 35 -32 14 -47 -17 -12 -14 -17 29 -61 49 -49 55 -69 39 -127 -5 -17 -6 -41
-2 -55 5 -23 7 -22 23 18 15 38 16 51 5 102 -14 71 -8 82 63 105 58 19 69 15
69 -29 0 -38 15 -56 47 -56 13 0 23 -2 23 -4 0 -2 3 -11 6 -20 5 -13 -1 -16
-33 -16 -22 0 -43 -3 -46 -6 -7 -8 7 -36 29 -58 19 -20 54 -5 54 24 0 30 17
33 60 9 45 -25 55 -42 34 -59 -20 -18 -17 -49 10 -94 20 -32 22 -43 14 -68 -6
-16 -9 -30 -7 -31 2 -2 27 -11 56 -21 48 -16 53 -16 76 -1 24 15 28 15 76 -10
28 -14 51 -29 51 -34 0 -20 33 -41 64 -41 19 0 49 -11 70 -25 20 -14 50 -25
66 -25 22 0 36 -9 57 -36 15 -20 35 -43 45 -51 29 -26 83 -80 94 -95 32 -41
22 -98 -16 -98 -11 0 -20 -4 -20 -8 0 -10 60 -32 87 -32 13 0 39 -20 66 -52
43 -50 73 -63 46 -20 -21 34 -5 50 57 58 52 6 59 5 72 -15 16 -24 33 -26 63
-8 18 11 24 8 52 -25 18 -20 44 -40 58 -43 29 -7 82 -78 77 -104 -2 -9 -17
-18 -33 -21 -18 -3 -31 -12 -33 -23 -5 -23 14 -22 45 3 47 37 98 19 129 -47
16 -33 16 -36 1 -45 -9 -5 -17 -17 -17 -27 0 -10 -10 -25 -22 -34 l-23 -15 28
-30 29 -30 -23 -16 -23 -16 23 -24 c18 -19 22 -31 16 -55 -4 -17 -9 -31 -12
-31 -2 0 -23 13 -46 29 -50 34 -132 49 -141 26 -4 -11 -22 -15 -70 -15 -57 0
-65 3 -80 24 -13 21 -21 24 -52 19 -36 -6 -37 -5 -29 18 5 13 8 45 7 70 l-2
46 42 7 c35 6 45 3 58 -12 22 -28 132 -52 145 -32 10 16 3 20 -37 25 -54 7
-88 23 -88 41 0 9 16 32 35 51 19 19 35 39 35 43 0 16 -61 69 -74 64 -7 -3
-19 -19 -27 -37 -16 -38 -43 -46 -70 -21 -15 13 -19 14 -19 3 0 -8 9 -22 20
-32 26 -22 16 -45 -24 -55 -27 -7 -32 -14 -37 -49 -3 -22 -13 -48 -22 -58 -29
-28 -69 -123 -62 -145 4 -11 17 -32 31 -47 23 -25 25 -25 44 -8 17 16 25 17
59 7 52 -16 78 -15 85 3 3 8 12 15 20 15 19 0 31 -37 17 -54 -8 -10 -8 -16 3
-25 8 -7 17 -23 20 -36 4 -14 13 -25 21 -25 15 0 65 -60 65 -78 0 -6 -7 -17
-15 -26 -14 -14 -14 -19 5 -55 30 -59 27 -79 -12 -83 -24 -2 -34 -9 -36 -23
-8 -48 -33 -83 -74 -104 -24 -11 -67 -34 -96 -51 -55 -31 -72 -32 -72 -1 0 13
10 20 30 25 31 6 42 26 15 26 -12 0 -13 3 -3 19 9 15 9 25 0 45 -6 14 -9 33
-6 41 8 20 -21 52 -68 76 -23 12 -40 29 -44 43 -6 26 -55 53 -74 41 -9 -6 -40
20 -143 118 -16 15 -33 27 -37 27 -5 0 -18 10 -30 22 -11 12 -20 20 -21 17 -6
-33 -2 -78 7 -94 7 -11 15 -39 19 -62 5 -32 18 -54 56 -92 61 -62 74 -92 55
-129 -7 -15 -16 -39 -20 -54 -3 -16 -13 -28 -21 -28 -8 0 -19 -9 -25 -20 -19
-36 -73 -22 -98 25 -8 14 -11 15 -11 5 0 -8 15 -32 34 -53 31 -32 38 -35 55
-25 20 13 47 3 112 -39 24 -15 32 -16 60 -5 30 11 35 10 51 -9 18 -23 23 -94
8 -118 -8 -12 -16 -12 -54 -1 -25 7 -48 19 -51 27 -3 8 -10 11 -16 8 -14 -9
-83 15 -93 31 -14 24 -29 15 -23 -13 8 -39 -2 -50 -62 -66 -29 -7 -52 -17 -50
-23 2 -5 26 -9 55 -10 49 -1 54 -4 97 -50 43 -46 46 -52 43 -99 -2 -46 -4 -50
-29 -53 -24 -3 -28 -8 -28 -37 0 -33 2 -34 42 -37 36 -3 44 -7 52 -31 9 -24 6
-31 -23 -58 -19 -17 -40 -28 -47 -25 -18 7 -17 -12 1 -44 22 -38 18 -71 -15
-136 -16 -32 -30 -66 -30 -75 0 -29 -28 -84 -49 -97 -14 -8 -21 -23 -21 -41 0
-16 -8 -39 -19 -52 -14 -18 -17 -30 -10 -53 10 -34 -1 -52 -25 -43 -11 4 -16
19 -16 44 -1 38 -27 83 -49 83 -14 0 -14 -21 0 -57 16 -39 13 -147 -7 -276
-18 -112 -29 -132 -60 -106 -13 10 -15 23 -9 59 9 55 7 252 -3 300 -6 28 -13
35 -32 36 -14 1 -33 -4 -43 -11 -21 -14 -64 -7 -114 18 -43 23 -49 49 -23 92
32 51 58 47 100 -17 29 -43 40 -52 64 -53 29 0 30 1 32 57 4 89 27 115 74 86
17 -11 22 -10 30 2 7 11 5 19 -9 30 -24 21 -29 39 -21 71 6 19 3 28 -11 37
-26 16 -49 4 -56 -29 -3 -16 -12 -29 -20 -29 -20 0 -61 44 -69 75 -9 35 9 52
77 75 65 21 72 40 30 79 -17 16 -31 34 -31 39 0 6 -14 21 -30 34 -39 30 -51
89 -26 117 13 14 16 28 11 54 -6 30 -4 37 17 48 31 16 38 28 38 65 l0 31 55
-5 c53 -4 55 -3 65 24 9 23 8 34 -4 56 -9 14 -16 36 -16 47 0 22 -42 46 -65
37 -15 -5 -75 20 -75 32 0 5 7 15 15 22 8 7 15 19 15 26 0 15 -50 44 -76 44
-11 0 -14 5 -10 16 10 25 -3 54 -24 54 -34 0 -34 33 1 63 18 15 39 27 46 27 7
0 13 5 13 10 0 10 -14 13 -75 14 -36 1 -49 34 -16 43 38 10 16 33 -30 33 -19
0 -19 -5 -13 -62 3 -35 13 -71 22 -81 14 -16 14 -19 -3 -31 -17 -12 -17 -15
-2 -37 10 -13 17 -31 17 -40 0 -22 109 -149 128 -149 7 0 39 -12 70 -27 l57
-27 -49 -10 c-40 -7 -54 -6 -78 9 -28 16 -30 16 -43 -2 -16 -21 -44 -10 -60
25 -10 23 -24 26 -62 16 -30 -8 -29 -25 2 -54 14 -13 25 -31 25 -41 0 -9 11
-26 26 -36 25 -18 49 -87 37 -106 -3 -5 -19 -6 -37 -2 -17 3 -46 9 -65 12 -23
4 -38 14 -50 35 -15 27 -20 29 -59 25 -53 -6 -62 7 -29 41 17 18 27 42 31 72
2 25 5 46 5 48 1 1 17 2 36 2 43 0 54 20 31 55 -22 33 -32 32 -39 -5 -7 -33
-27 -39 -51 -14 -22 22 -20 30 14 56 16 12 30 28 30 35 0 7 5 13 11 13 6 0 8
8 6 18 -3 9 -8 29 -11 44 -5 24 -51 58 -77 58 -17 0 3 -28 23 -33 33 -9 16
-62 -37 -115 -39 -38 -49 -43 -82 -40 -37 3 -38 2 -48 -42 -5 -25 -14 -51 -18
-57 -11 -18 -68 -16 -95 3 -19 13 -22 24 -22 90 0 52 5 82 16 99 21 32 32 24
32 -20 0 -45 18 -68 46 -59 30 9 30 9 2 47 -14 18 -31 48 -37 66 -8 23 -17 31
-33 30 -78 -7 -93 0 -164 69 -64 63 -68 69 -61 97 16 58 69 92 105 67 6 -4 21
-28 32 -54 20 -46 35 -58 46 -39 3 4 -3 16 -14 26 -22 20 -27 76 -10 119 14
38 26 32 27 -14 2 -49 8 -59 39 -70 20 -8 24 -17 26 -52 0 -24 0 -55 -1 -70
-3 -39 16 -43 34 -8 9 17 20 28 25 25 11 -7 40 5 40 16 0 4 -9 16 -20 26 -19
18 -19 19 14 53 18 19 49 48 69 63 21 15 37 31 37 36 0 10 -66 41 -88 41 -20
0 -72 49 -72 68 0 7 13 12 30 12 17 0 30 4 30 9 0 12 -27 22 -44 15 -9 -3 -17
3 -21 18 -4 13 -19 39 -34 58 -34 46 -48 72 -56 109 -4 17 -11 31 -15 31 -5 0
-22 14 -38 32 -26 27 -29 35 -20 60 11 31 3 94 -13 104 -14 8 -39 -15 -39 -37
0 -11 6 -19 14 -19 7 0 16 -14 20 -31 5 -24 1 -35 -17 -49 -21 -18 -22 -19 -4
-48 9 -17 17 -43 17 -58 l0 -28 16 22 c20 29 32 28 44 -4 6 -14 26 -53 45 -86
39 -66 42 -83 19 -92 -26 -10 -32 -7 -74 30 -29 26 -40 32 -40 20 0 -26 -37
-56 -70 -56 -22 0 -28 -4 -24 -15 4 -8 16 -15 28 -15 28 0 76 -49 76 -77 0
-12 -10 -29 -22 -37 -37 -26 -69 -19 -117 24 -46 42 -48 51 -25 127 5 19 1 22
-43 28 -97 13 -106 21 -127 110 -11 47 -14 50 -46 55 -40 6 -57 15 -84 47 -24
28 -10 48 38 57 46 9 64 -1 81 -40 8 -19 19 -34 24 -34 6 0 11 -10 11 -22 0
-15 12 -31 33 -45 39 -27 57 -29 57 -8 0 8 7 15 15 15 8 0 15 -6 15 -14 0 -9
7 -12 21 -9 14 4 17 9 10 16 -6 6 -11 26 -11 45 0 30 -3 34 -21 29 -34 -9 -68
9 -75 40 -4 15 -17 39 -29 53 -36 40 -56 87 -49 115 5 22 12 25 50 25 40 0 43
2 36 21 -4 11 -19 26 -32 32 -15 8 -30 28 -38 52 -7 22 -16 42 -20 45 -5 3
-19 22 -31 43 -26 43 -18 67 17 48 25 -13 32 -6 32 36 0 20 8 41 21 54 18 18
29 20 77 15 126 -12 126 -12 130 7 3 12 -9 22 -42 37 -25 10 -46 21 -46 24 0
21 18 37 51 46 33 9 39 15 39 38 0 36 10 49 40 53 18 3 26 11 28 29 3 31 -22
56 -93 96 -146 80 -160 96 -157 176 2 34 5 65 8 69 10 16 39 9 84 -21 25 -16
57 -30 72 -30 15 0 39 -5 54 -10 15 -6 29 -8 32 -5 10 10 -31 45 -53 45 -31 0
-59 24 -52 44 5 12 17 16 42 14 42 -3 60 14 69 63 5 26 2 40 -9 49 -13 11 -13
16 0 47 19 45 6 73 -33 73 -16 0 -54 16 -87 35 -32 20 -60 34 -62 32 -2 -2 3
-17 12 -33 8 -16 15 -41 15 -57 0 -23 8 -31 58 -55 39 -18 58 -34 60 -48 3
-18 -7 -23 -70 -41 -70 -19 -75 -19 -123 -3 -72 25 -107 48 -140 92 -41 54
-105 49 -141 -11 -10 -17 -27 -31 -37 -31 -34 0 -137 60 -137 81 0 13 63 29
105 26 37 -2 40 0 45 28 5 29 7 30 63 30 48 0 57 2 57 17 0 10 -10 20 -25 24
-43 11 -62 74 -28 93 16 9 16 12 -5 49 -13 23 -22 57 -22 80 0 39 -2 42 -37
51 -21 6 -48 18 -61 26 -13 10 -31 14 -42 10 -17 -5 -20 -15 -20 -71 0 -35 -1
-67 -2 -71 -2 -5 14 -16 35 -26 55 -28 49 -47 -16 -47 -65 0 -87 19 -85 73 1
20 -2 40 -5 43 -3 4 -24 2 -46 -4 -46 -11 -51 -8 -51 26 0 14 -9 40 -21 58
-21 35 -23 75 -2 81 6 2 24 -10 39 -26 46 -52 136 -37 121 21 -4 12 1 34 11
50 15 26 15 30 -6 73 -23 49 -35 54 -63 29 -20 -18 -69 -12 -69 8 0 6 -11 25
-24 42 -38 51 -41 72 -11 100 39 36 72 111 80 178 6 48 11 61 29 68 28 10 68
-11 86 -47z m4327 22 c20 -8 42 -23 48 -32 7 -9 26 -18 41 -19 52 -3 54 -4 54
-23 0 -19 -34 -31 -88 -31 -14 0 -34 -8 -44 -17 -26 -23 -118 -21 -136 4 -25
34 -25 61 0 86 47 49 70 55 125 32z m-3482 -75 c18 -11 36 -27 39 -35 3 -9 18
-15 34 -15 33 0 65 -30 60 -57 -4 -20 -54 -31 -70 -15 -7 7 -20 7 -39 0 -35
-12 -52 -1 -80 53 -22 44 -24 60 -7 77 16 16 25 15 63 -8z m6616 -10 c10 -6
33 -38 50 -71 34 -68 34 -119 0 -161 -17 -20 -21 -21 -77 -10 -76 16 -90 30
-75 73 6 17 11 56 11 85 0 45 4 56 26 73 30 24 38 25 65 11z m-2695 -167 c19
-24 24 -26 38 -14 26 21 46 -2 36 -42 -4 -18 -3 -41 1 -52 15 -38 9 -71 -15
-95 -33 -30 -52 -21 -60 30 -5 32 -3 47 10 61 25 28 14 54 -22 52 -42 -3 -62
29 -39 63 20 30 24 30 51 -3z m-3176 -43 c0 -10 14 -30 30 -43 17 -14 30 -30
30 -36 0 -6 5 -11 10 -11 19 0 10 -26 -18 -53 -37 -35 -58 -34 -82 6 -34 55
-22 175 15 161 8 -4 15 -14 15 -24z m-653 -52 c4 -7 8 -22 8 -33 0 -17 8 -20
53 -23 29 -2 52 -8 52 -14 0 -6 -22 -35 -50 -63 -45 -48 -49 -56 -43 -89 5
-35 5 -36 -24 -36 -38 0 -57 22 -50 57 3 16 -1 56 -9 90 -15 60 -15 63 7 92
24 33 43 39 56 19z m5564 -39 c20 -10 20 -11 -5 -56 -33 -58 -33 -94 -1 -129
32 -34 32 -57 -1 -83 -34 -27 -84 -27 -119 1 -27 21 -75 109 -75 139 0 25 39
59 67 59 18 0 38 13 63 40 41 44 42 45 71 29z m-4896 -149 c13 -21 27 -51 31
-65 4 -18 23 -38 55 -58 27 -16 49 -33 49 -37 0 -17 -42 -42 -78 -47 -32 -4
-44 -1 -61 16 -12 12 -21 32 -20 44 4 36 -12 100 -34 136 -20 33 -20 34 -2 47
22 17 30 12 60 -36z m10329 -38 c26 -27 58 -55 72 -63 29 -15 29 -27 -5 -123
-12 -33 -21 -78 -21 -101 0 -22 -5 -46 -12 -53 -33 -33 -111 5 -123 60 -7 27
9 50 51 74 14 8 18 21 17 55 -2 38 -7 49 -42 79 -45 39 -52 71 -24 102 24 27
37 23 87 -30z m-10816 -24 c20 -24 37 -42 81 -82 18 -16 30 -30 27 -33 -2 -2
-23 2 -47 10 -24 8 -52 12 -63 7 -44 -16 -118 18 -129 60 -8 30 21 46 106 59
4 0 15 -9 25 -21z m-1249 -154 c16 -20 21 -41 21 -84 0 -47 4 -60 25 -80 14
-13 30 -42 36 -63 12 -44 6 -53 -44 -64 -27 -6 -28 -6 -21 -64 6 -55 5 -59
-24 -89 -18 -18 -41 -30 -56 -30 -27 0 -66 31 -66 53 0 7 -25 50 -55 96 -64
95 -74 129 -51 162 9 13 16 34 16 47 0 64 47 80 104 37 64 -49 105 -23 66 40
-12 20 -19 42 -16 50 9 24 43 17 65 -11z m6909 -6 c12 -12 22 -32 22 -45 0
-13 5 -23 10 -23 6 0 10 5 10 10 0 7 7 7 20 0 12 -6 35 -10 52 -8 26 2 33 9
43 38 13 39 35 47 78 31 19 -8 27 -18 27 -35 0 -40 -47 -58 -151 -59 l-88 0
-3 -41 c-2 -31 -9 -43 -27 -52 -28 -14 -68 -1 -75 25 -9 28 -10 166 -2 180 11
17 54 6 84 -21z m-186 -25 c21 -25 28 -48 18 -63 -7 -11 -29 -18 -120 -36 -31
-7 -63 24 -58 57 3 25 16 33 73 47 60 14 70 14 87 -5z m5716 -36 c4 -63 -17
-97 -58 -97 -43 0 -74 34 -66 73 10 49 44 78 86 75 34 -3 35 -4 38 -51z
m-10323 17 c27 -41 13 -70 -39 -83 -36 -9 -46 -16 -55 -42 -6 -18 -11 -40 -11
-49 0 -10 -9 -29 -21 -44 -25 -32 -59 -34 -131 -6 -29 11 -63 20 -76 20 -14 0
-29 11 -42 33 -35 57 -23 107 31 126 51 18 66 13 106 -29 21 -22 41 -40 45
-40 16 0 66 57 72 82 7 29 47 57 82 58 13 0 29 -11 39 -26z m9753 1 c27 -59 6
-104 -49 -105 -14 0 -36 -11 -48 -24 -31 -33 -54 -37 -90 -15 -36 21 -48 60
-32 96 10 22 17 25 44 20 18 -3 40 -8 49 -12 13 -5 27 3 50 28 40 42 61 45 76
12z m-3537 -20 c33 -26 54 -35 82 -35 31 0 39 -4 47 -26 24 -62 7 -147 -38
-187 -23 -21 -91 -57 -107 -57 -12 0 -68 56 -104 105 -19 25 -21 37 -15 79 7
55 39 136 57 148 21 13 33 9 78 -27z m-7271 -8 c15 -8 31 -30 40 -57 15 -43
18 -45 53 -43 23 2 37 -2 37 -9 0 -7 11 -24 25 -38 22 -23 24 -29 11 -39 -11
-9 -20 -10 -36 -1 -17 9 -25 8 -39 -4 -13 -12 -32 -14 -91 -9 -95 7 -104 14
-96 72 3 25 1 58 -6 76 -16 47 -6 65 39 65 21 0 49 -6 63 -13z m1722 -29 c28
-11 54 -58 44 -83 -3 -9 -14 -18 -23 -22 -25 -9 -42 -34 -35 -53 10 -28 35
-50 57 -50 29 0 44 -19 47 -61 3 -34 3 -34 -38 -33 -29 0 -55 10 -88 32 -26
18 -56 32 -66 32 -11 0 -27 11 -36 25 -16 24 -16 27 2 40 10 8 31 15 47 15 41
0 35 32 -13 64 -45 29 -44 27 -30 78 l11 38 47 -6 c26 -3 59 -10 74 -16z
m2518 7 c0 -16 -27 -20 -108 -15 -38 2 -43 -1 -40 -17 3 -16 14 -18 84 -18 53
0 87 -5 98 -14 10 -8 26 -11 43 -7 16 4 42 7 58 7 27 0 28 1 9 9 -12 5 -25 13
-29 19 -3 6 -26 11 -51 11 -31 0 -44 4 -44 14 0 42 111 22 161 -30 43 -44 59
-44 59 1 0 41 15 39 45 -5 14 -21 28 -30 47 -30 20 0 26 4 22 15 -9 23 31 19
87 -10 107 -53 139 -76 139 -99 0 -18 8 -24 38 -32 20 -5 35 -12 32 -15 -6 -8
29 -49 41 -49 5 0 6 7 3 15 -13 33 22 11 92 -57 41 -40 94 -99 117 -132 23
-33 63 -80 90 -105 26 -24 47 -48 47 -54 0 -5 11 -22 25 -39 14 -16 28 -47 31
-68 5 -31 9 -37 26 -32 20 5 38 -11 38 -35 0 -7 -9 -13 -20 -13 -18 0 -19 -3
-9 -21 6 -12 24 -35 40 -52 19 -19 27 -37 24 -48 -3 -9 -2 -20 3 -23 17 -10
51 6 54 27 5 33 48 -63 48 -107 0 -20 4 -36 8 -36 5 0 14 -10 21 -22 10 -20
11 -17 7 25 -4 48 9 73 21 40 9 -24 64 -93 75 -93 4 0 8 13 8 30 0 20 -8 34
-24 45 -27 18 -40 89 -20 106 16 13 34 -19 34 -60 0 -17 4 -31 8 -31 5 0 7 13
4 29 -3 23 0 30 19 36 18 6 28 0 55 -31 19 -23 31 -46 28 -56 -3 -9 0 -19 5
-22 6 -4 8 -13 5 -21 -3 -7 7 -25 23 -39 23 -20 29 -33 25 -55 -3 -22 1 -32
18 -41 23 -12 60 -67 60 -89 0 -9 -8 -11 -25 -7 l-25 6 25 -36 c15 -23 25 -51
25 -73 0 -26 9 -47 31 -74 17 -20 26 -37 20 -37 -6 0 -11 -9 -11 -20 0 -11 -3
-20 -7 -20 -5 0 -14 -4 -22 -9 -11 -7 -11 -14 5 -37 11 -16 26 -41 34 -56 9
-19 21 -28 37 -28 21 0 23 -5 23 -44 0 -25 5 -48 10 -51 15 -10 12 -35 -5 -35
-19 0 -18 -4 1 -59 13 -38 13 -49 1 -80 -8 -20 -12 -53 -9 -73 4 -36 2 -38
-22 -38 -22 0 -26 4 -22 23 6 25 9 56 7 75 -2 21 -21 3 -21 -20 0 -11 -8 -33
-17 -48 -15 -27 -15 -30 1 -55 21 -32 16 -41 -13 -23 -15 9 -21 23 -21 49 0
30 -33 119 -44 119 -13 0 18 -170 32 -179 5 -3 10 -17 10 -31 0 -27 10 -76 20
-100 3 -8 9 10 12 40 4 48 8 55 28 58 15 2 22 9 18 17 -6 16 -2 20 37 29 21 5
29 2 34 -11 3 -10 14 -27 25 -39 36 -41 47 -116 43 -320 -4 -188 4 -333 24
-426 6 -26 11 -65 12 -85 1 -21 5 -51 10 -68 4 -16 10 -74 12 -127 4 -100 -4
-121 -31 -78 -8 13 -23 20 -43 20 -17 0 -28 4 -24 10 3 6 15 10 26 10 12 0 19
7 19 20 0 11 -3 20 -7 20 -5 0 -14 4 -22 9 -11 7 -11 12 2 32 18 27 14 52 -26
189 -14 47 -30 117 -37 155 -6 39 -29 106 -50 150 -39 82 -58 166 -64 285 -3
57 -6 67 -34 90 -17 14 -35 37 -41 50 -9 24 -10 24 -10 -8 -1 -20 5 -35 13
-38 10 -4 17 -28 21 -72 3 -37 15 -96 25 -132 10 -36 23 -93 29 -128 5 -34 12
-66 15 -70 14 -23 37 -171 35 -225 -3 -80 7 -125 32 -132 12 -4 19 -16 19 -33
0 -15 3 -37 6 -50 5 -18 2 -24 -14 -29 -18 -4 -20 -11 -16 -54 3 -39 1 -47
-11 -43 -8 3 -23 -1 -35 -9 -18 -13 -19 -15 -4 -21 12 -5 14 -13 10 -32 -5
-20 -1 -33 15 -50 18 -19 19 -24 7 -24 -9 0 -23 -3 -31 -6 -8 -3 -22 3 -32 12
-17 17 -17 16 -10 -17 9 -44 45 -109 61 -109 6 0 14 -7 18 -15 3 -8 12 -15 21
-15 8 0 15 -7 15 -15 0 -21 -17 -19 -30 5 -14 25 -45 28 -35 3 4 -10 12 -30
17 -45 5 -16 14 -28 19 -28 5 0 9 -7 9 -17 0 -14 -2 -14 -20 2 -20 18 -20 17
-20 -7 0 -14 -6 -28 -14 -31 -15 -6 -26 12 -27 46 0 15 -2 17 -6 7 -3 -8 -9
-17 -13 -20 -11 -8 -40 -72 -40 -88 0 -12 4 -11 26 3 22 14 28 15 35 4 5 -8 9
-22 9 -31 0 -9 5 -20 10 -23 6 -3 10 -13 10 -21 0 -11 -7 -13 -26 -8 -32 8
-76 -32 -68 -63 4 -13 0 -23 -10 -26 -9 -4 -16 -16 -16 -27 0 -15 -7 -20 -24
-20 -16 0 -27 -7 -31 -20 -8 -24 -18 -25 -35 -5 -10 12 -9 16 4 21 36 14 16
33 -43 40 -55 6 -59 8 -48 25 9 14 9 21 -1 31 -6 6 -12 24 -12 39 0 22 -4 26
-20 22 -12 -3 -28 1 -38 10 -16 14 -17 13 -18 -14 -1 -24 3 -29 22 -29 29 0
30 -11 3 -76 -18 -44 -26 -51 -48 -51 -14 0 -21 2 -15 4 6 2 8 17 6 33 -3 24
-1 30 14 30 16 0 15 2 -5 16 -19 14 -22 23 -18 51 4 21 2 31 -4 27 -5 -3 -25
6 -44 20 -18 14 -37 26 -42 26 -4 0 -18 11 -30 24 -31 32 -32 95 -3 103 28 7
25 23 -5 23 -19 0 -25 5 -25 23 0 13 5 28 10 33 8 8 8 19 0 38 -5 15 -8 32 -4
37 14 23 -43 147 -90 195 -17 18 -47 53 -66 79 -19 26 -44 52 -57 58 -13 6
-23 14 -23 18 0 4 -9 11 -20 14 -11 3 -20 15 -20 26 0 10 -5 19 -11 19 -6 0
-20 11 -30 24 -11 14 -28 28 -39 31 -11 4 -20 15 -20 26 0 10 -7 19 -15 19 -8
0 -15 7 -15 15 0 8 -5 15 -11 15 -7 0 -31 15 -53 34 -28 22 -60 38 -99 46 -31
6 -57 16 -57 21 0 5 -7 9 -16 9 -8 0 -13 -4 -10 -8 3 -5 -10 -9 -28 -10 -24
-1 -39 6 -55 24 -17 19 -26 23 -34 15 -8 -8 -5 -17 11 -34 12 -13 22 -30 22
-39 0 -9 7 -21 15 -28 9 -8 12 -22 8 -40 -4 -21 1 -35 16 -52 12 -13 35 -41
52 -63 50 -65 119 -135 135 -135 15 0 44 -59 50 -102 2 -16 -1 -28 -6 -28 -6
0 -8 -11 -4 -24 4 -19 1 -26 -15 -31 -28 -9 -45 3 -31 20 12 15 6 35 -10 35
-5 0 -18 -10 -29 -22 -19 -20 -22 -20 -39 -5 -10 9 -24 17 -30 17 -24 0 -22
-21 5 -46 18 -16 23 -28 16 -32 -6 -4 -14 -24 -18 -45 -9 -45 -29 -44 -33 2
-2 18 -10 35 -18 38 -8 3 -14 13 -14 23 0 21 -66 63 -88 55 -8 -3 -30 11 -54
35 -42 42 -58 46 -39 11 9 -16 7 -25 -13 -46 -21 -22 -25 -23 -36 -10 -7 9
-22 14 -34 13 -19 -3 -22 3 -26 50 -10 94 -60 102 -192 31 -53 -28 -138 8
-211 88 -31 35 -57 68 -57 75 0 7 -3 23 -6 36 -5 17 -2 22 12 22 18 1 18 1 0
15 -19 15 -19 16 -2 52 15 30 18 60 17 147 -1 60 -4 114 -8 119 -6 10 -15 47
-34 142 -9 43 -19 156 -20 220 -1 71 -1 215 1 243 6 134 -14 272 -41 272 -5 0
-9 -13 -9 -29 0 -25 -4 -29 -32 -33 -53 -8 -96 9 -114 45 -21 41 -24 44 -32
31 -4 -6 -17 -14 -29 -18 -18 -6 -23 -3 -23 11 0 10 -11 29 -23 43 -26 30 -96
75 -104 67 -3 -3 -29 7 -58 22 -49 26 -55 27 -69 13 -15 -15 -16 -14 -16 6 0
16 -6 22 -22 22 -18 0 -23 6 -25 30 -1 17 -11 43 -21 58 -11 15 -17 33 -15 40
4 10 -8 29 -58 90 -5 7 -7 17 -4 22 3 6 -1 10 -9 10 -21 0 -30 18 -17 34 6 7
9 15 7 17 -9 11 -16 60 -8 55 6 -3 12 7 14 23 4 26 2 28 -13 20 -23 -12 -29
-11 -29 2 0 7 8 17 17 24 16 12 16 14 0 29 -17 18 -28 49 -25 76 3 36 -4 49
-32 59 -23 7 -30 16 -30 36 0 15 -7 28 -17 32 -10 3 -28 15 -41 27 -20 17 -24
18 -32 6 -8 -12 -10 -11 -10 6 0 11 5 25 11 31 6 6 9 21 7 34 -2 18 -9 23 -25
22 -22 -3 -39 22 -23 32 6 4 10 19 10 35 0 23 3 27 20 23 12 -3 20 0 20 6 0
15 50 60 67 61 6 0 13 -6 16 -12 3 -9 11 -7 28 8 29 27 69 40 69 24 0 -6 18 2
39 19 21 17 43 31 48 31 5 0 22 13 38 30 21 22 34 28 51 24 18 -5 29 2 53 36
17 23 33 51 37 62 5 15 12 19 32 15 37 -8 104 13 98 30 -3 7 0 13 7 13 7 0 34
13 60 30 38 24 49 27 53 16 10 -27 -1 -51 -23 -51 -11 -1 -28 -7 -38 -15 -16
-13 -15 -14 4 -22 21 -8 51 -1 51 11 0 16 83 95 87 84 6 -16 35 -17 51 -1 19
19 14 28 -19 40 l-32 11 24 17 c18 14 28 16 46 7 19 -8 26 -7 37 8 9 13 15 15
21 6 5 -9 12 -7 26 8 27 29 43 27 35 -5 -6 -22 -4 -25 9 -20 9 3 25 6 36 6 24
0 37 29 18 41 -10 6 -10 9 -1 9 6 0 12 5 12 10 0 6 -11 10 -25 10 -25 0 -45
25 -45 55 0 12 5 15 23 9 21 -6 21 -6 5 13 -15 16 -33 20 -115 22 -54 1 -112
4 -130 7 -28 5 -30 8 -18 20 12 13 30 13 132 -1 151 -19 151 -19 165 -33 7 -7
18 -12 25 -12 8 0 16 -7 19 -15 7 -18 31 -20 37 -2 3 8 12 5 29 -11 26 -24 58
-21 58 4 0 8 10 14 23 14 13 0 27 3 30 7 12 12 -15 33 -43 33 -23 0 -27 -4
-23 -20 7 -27 -8 -25 -53 5 -20 14 -50 25 -66 25 -16 0 -31 6 -34 15 -5 12
-10 13 -20 4 -11 -9 -14 -7 -14 13 0 40 29 49 183 56 27 2 37 -2 37 -13z
m-6600 -23 c0 -5 13 -29 30 -53 18 -26 30 -57 30 -76 0 -28 4 -33 25 -33 13 0
28 7 33 16 6 11 16 14 30 10 38 -12 35 -36 -10 -77 -37 -33 -49 -38 -83 -36
-37 2 -40 4 -46 38 -3 21 -13 44 -22 53 -9 9 -28 40 -42 68 l-26 51 22 23 c22
23 59 33 59 16z m5925 -71 c9 -21 14 -23 63 -18 49 5 71 -6 37 -19 -26 -10
-16 -21 15 -16 24 3 30 1 30 -13 0 -15 -6 -17 -35 -12 -20 3 -37 1 -41 -5 -5
-7 -2 -9 8 -5 10 3 18 -1 21 -13 6 -24 0 -30 -29 -30 -25 0 -33 -9 -50 -58
-11 -31 -10 -34 13 -43 21 -8 23 -12 12 -25 -7 -8 -21 -13 -32 -10 -11 3 -26
-4 -40 -20 -23 -27 -37 -31 -37 -10 0 8 7 16 16 18 12 2 8 9 -15 26 -29 21
-32 22 -56 6 -25 -16 -45 -12 -45 10 0 21 26 38 78 52 26 7 39 13 29 13 -26 1
-16 25 12 29 27 4 23 23 -7 37 -23 10 -35 31 -26 46 11 18 29 8 53 -28 l24
-37 24 28 23 28 -22 24 c-13 13 -31 24 -40 24 -10 0 -18 5 -18 11 0 7 -8 18
-17 26 -16 12 -15 13 12 11 20 -2 33 -10 40 -27z m-5322 -76 c29 -20 37 -32
37 -56 0 -42 -29 -89 -55 -89 -54 0 -99 115 -60 153 22 23 34 21 78 -8z
m11256 13 c72 -26 89 -60 50 -99 -18 -18 -30 -21 -72 -16 -56 5 -86 32 -87 78
0 48 38 61 109 37z m-8762 -93 c41 -45 50 -78 29 -110 -23 -36 -52 -48 -95
-40 -20 4 -55 8 -79 9 -25 1 -47 8 -52 16 -13 20 -12 87 0 111 14 26 35 24 76
-7 l35 -27 16 42 c9 22 21 41 27 41 6 0 26 -16 43 -35z m6551 -99 l47 -45 1
-148 c0 -81 4 -169 8 -196 10 -57 -9 -87 -57 -87 -42 0 -103 38 -121 74 -14
29 -13 33 16 84 16 29 27 59 24 67 -3 8 -20 18 -38 23 -27 7 -34 14 -36 38 -4
42 14 84 36 84 10 0 31 -13 45 -30 31 -34 45 -37 54 -13 5 12 -6 28 -38 55
-38 33 -44 42 -44 78 0 40 14 60 43 60 7 0 34 -20 60 -44z m-6067 -26 c55 -15
92 -69 97 -142 3 -37 0 -63 -8 -73 -8 -9 -10 -28 -5 -54 4 -22 2 -42 -3 -45
-7 -4 -6 -18 0 -40 15 -47 5 -66 -34 -66 -38 0 -78 34 -78 67 0 13 9 32 21 44
l21 21 -21 29 c-23 32 -27 70 -9 98 15 25 -4 51 -38 51 -18 0 -25 8 -33 38
-15 51 -14 59 7 71 22 13 38 13 83 1z m417 -92 c14 -14 16 -64 2 -73 -6 -4 -2
-22 10 -46 32 -61 11 -75 -58 -40 -20 11 -53 33 -72 50 -34 30 -35 31 -15 46
11 8 35 28 52 45 34 32 61 38 81 18z m-2347 -70 c48 -22 54 -32 50 -73 -2 -27
-19 -35 -74 -35 -57 0 -97 32 -97 78 0 56 41 66 121 30z m-968 -160 c17 -13
54 -34 81 -48 28 -14 57 -37 66 -52 8 -15 27 -37 43 -48 47 -37 31 -90 -27
-90 -38 0 -51 9 -60 38 -10 29 -52 30 -61 2 -9 -28 19 -68 57 -84 22 -10 39
-10 69 -2 49 13 70 2 85 -45 8 -23 20 -35 38 -40 40 -11 56 -28 56 -58 0 -15
5 -32 12 -39 6 -6 10 -13 7 -15 -15 -10 -82 -37 -92 -37 -13 0 -47 -35 -47
-48 0 -18 58 -61 96 -71 34 -9 43 -16 47 -39 4 -19 17 -33 41 -45 42 -19 47
-44 11 -53 -28 -7 -31 -20 -11 -46 9 -12 16 -14 23 -7 8 8 13 7 18 0 3 -6 -1
-14 -9 -17 -9 -3 -16 -17 -16 -30 0 -27 -8 -29 -64 -13 -21 6 -70 12 -110 13
-84 3 -129 23 -153 69 l-17 32 -7 -35 c-4 -19 -5 -45 -3 -57 3 -11 1 -30 -5
-41 -9 -17 -6 -26 19 -54 16 -18 30 -42 30 -53 0 -19 48 -55 73 -55 7 0 26 11
42 25 24 19 27 26 16 34 -11 7 -8 16 15 45 32 40 48 44 76 19 26 -23 23 -28
-22 -42 l-39 -12 18 -32 c13 -23 26 -33 47 -35 47 -4 74 -12 74 -21 0 -5 -20
-6 -45 -3 -56 6 -70 -16 -35 -54 30 -31 53 -31 78 1 11 14 22 25 25 25 10 0
29 -71 23 -85 -5 -15 -1 -16 53 -19 30 -1 41 -26 12 -26 -12 0 -21 -6 -21 -14
0 -7 -3 -27 -6 -43 -4 -22 0 -37 20 -60 52 -62 25 -93 -79 -93 -71 0 -106 30
-70 60 14 12 13 16 -6 36 -32 34 -11 56 50 52 40 -3 46 0 49 18 2 11 -2 33 -8
48 l-10 28 -31 -26 c-17 -14 -34 -26 -37 -26 -22 0 -74 45 -102 89 -19 28 -35
51 -36 51 -2 0 -11 -25 -20 -57 -16 -56 -51 -103 -76 -103 -9 0 -12 -14 -10
-50 5 -66 -9 -84 -57 -74 -20 4 -67 8 -106 9 -38 1 -83 8 -99 16 -30 14 -66
82 -66 124 0 19 -8 26 -37 34 -50 14 -83 38 -83 61 0 39 67 48 114 15 11 -8
25 -15 30 -15 13 0 -7 20 -35 34 -12 6 -27 19 -33 29 -9 15 -5 23 29 51 l39
33 -24 13 c-14 7 -50 36 -80 65 -44 42 -63 54 -95 58 -22 2 -49 9 -60 15 -11
6 -39 16 -62 22 -49 12 -57 35 -15 43 15 3 39 9 54 13 21 5 35 0 58 -20 26
-21 35 -24 52 -15 12 7 40 9 69 5 37 -5 55 -3 74 10 41 27 37 33 -87 139 -10
8 -18 25 -18 37 0 12 -16 64 -36 115 -35 90 -36 94 -19 119 14 22 22 25 53 21
21 -3 47 -8 60 -12 48 -16 14 44 -88 153 -32 35 -38 67 -16 97 12 17 35 20 89
13 13 -2 24 11 40 52 28 69 58 78 108 31 18 -17 36 -31 40 -31 15 0 19 19 9
46 -21 55 9 70 63 32z m8643 -94 c29 -20 52 -62 47 -86 -7 -30 -100 -55 -128
-34 -29 21 -24 81 10 111 31 29 38 30 71 9z m-7719 -86 c15 -7 33 -13 38 -13
6 -1 24 -7 40 -14 17 -7 43 -10 60 -6 54 12 118 11 122 -2 3 -7 -17 -26 -44
-44 -42 -27 -54 -30 -100 -26 -60 6 -63 1 -32 -50 18 -29 21 -44 16 -94 -6
-55 -5 -61 23 -93 22 -24 30 -44 30 -70 0 -41 -19 -48 -58 -20 -15 10 -32 14
-48 10 -21 -6 -33 1 -64 33 -48 50 -61 97 -31 117 32 23 28 74 -9 109 -29 28
-30 32 -24 90 4 36 12 65 22 73 20 15 24 15 59 0z m7728 -278 c45 -44 58 -47
102 -25 36 18 140 8 192 -20 31 -16 39 -28 57 -90 5 -16 17 -31 25 -33 9 -2
42 22 73 53 31 30 64 55 72 55 9 0 28 -8 42 -19 15 -10 53 -31 85 -46 60 -28
95 -67 117 -131 9 -25 8 -40 -4 -68 -14 -34 -14 -39 11 -92 35 -76 41 -129 18
-154 -10 -11 -27 -20 -37 -20 -21 0 -208 88 -208 98 -1 25 -42 55 -84 63 -32
6 -54 17 -68 34 -19 24 -38 33 -38 18 0 -12 110 -125 153 -156 20 -15 37 -35
37 -43 0 -8 24 -25 53 -38 34 -15 58 -34 70 -54 10 -18 38 -45 62 -62 55 -38
175 -174 175 -200 0 -10 -11 -31 -24 -47 -57 -68 -59 -96 -8 -122 58 -30 78
-59 97 -144 15 -65 16 -81 5 -101 -7 -14 -10 -37 -7 -53 3 -15 8 -44 12 -63 9
-46 -18 -82 -60 -82 -23 0 -40 12 -77 53 -26 30 -48 57 -48 62 0 4 -22 7 -48
7 -46 0 -49 2 -77 46 -19 30 -43 52 -72 66 -23 11 -47 26 -54 34 -6 8 -17 14
-24 14 -6 0 -31 14 -55 31 -25 18 -73 39 -114 49 -39 10 -111 35 -161 55 -71
29 -102 37 -150 36 -149 -2 -221 60 -145 127 17 15 30 36 30 48 0 13 14 33 33
48 17 15 38 31 45 37 19 15 15 32 -17 68 -20 22 -40 34 -67 37 -55 8 -82 23
-88 50 -3 12 -17 35 -30 51 -37 44 -40 71 -15 127 25 58 30 140 8 160 -8 7
-33 18 -57 25 -30 9 -49 21 -62 44 -39 63 -18 104 46 94 l36 -6 -5 37 c-8 47
2 62 44 71 23 5 35 13 37 26 8 52 14 66 40 80 39 22 81 11 127 -35z m2976
-290 c38 -20 41 -20 69 -3 26 15 32 16 44 3 12 -13 10 -22 -20 -67 -30 -47
-38 -53 -69 -53 -47 0 -99 26 -119 62 -16 27 -16 31 -2 53 20 30 44 31 97 5z
m-10955 -10 c21 -8 124 -105 124 -117 0 -8 -64 -66 -91 -82 -69 -42 -173 25
-140 88 9 17 7 22 -16 33 -19 9 -28 21 -28 38 0 20 7 26 45 36 58 16 73 16
106 4z m11236 -2 c9 -7 18 -24 20 -38 2 -20 17 -32 75 -60 40 -19 73 -38 73
-42 0 -23 -43 -45 -113 -57 -71 -13 -79 -12 -97 4 -28 25 -70 114 -70 146 0
48 72 78 112 47z m-4073 -90 c27 -28 34 -31 51 -20 41 25 64 14 157 -75 72
-70 93 -97 103 -132 11 -40 9 -48 -14 -93 -29 -55 -31 -42 21 -140 8 -15 13
-44 11 -65 -3 -32 -7 -39 -33 -47 -16 -4 -42 -15 -56 -22 -26 -13 -30 -12 -83
33 -65 55 -74 74 -51 109 11 17 13 29 7 37 -5 7 -13 27 -17 45 -4 18 -32 62
-63 99 -31 36 -73 93 -92 126 -41 71 -66 91 -81 65 -15 -27 -26 -22 -33 16 -9
45 10 84 43 89 76 12 98 7 130 -25z m517 -3 c19 -14 34 -31 34 -37 0 -6 -20
-29 -45 -52 -34 -32 -46 -51 -51 -84 -7 -46 -24 -65 -51 -60 -28 5 -38 48 -19
88 8 19 21 42 28 52 9 13 9 25 -1 56 -19 57 -10 76 35 69 20 -3 51 -18 70 -32z
m-7179 -246 c48 -23 54 -43 24 -80 -17 -22 -26 -24 -91 -23 -83 1 -103 16 -98
69 6 55 86 72 165 34z m-907 -220 c40 -9 51 -15 56 -35 7 -29 -19 -64 -48 -64
-10 0 -18 -7 -18 -15 0 -8 -9 -23 -20 -32 -28 -25 -25 -37 15 -59 43 -23 50
-40 30 -71 -14 -21 -52 -43 -73 -43 -4 0 -25 16 -47 35 -28 25 -46 34 -62 30
-31 -7 -53 20 -53 65 0 29 5 42 19 50 22 11 66 -1 73 -21 2 -7 11 -10 21 -6
17 6 17 9 1 38 -13 26 -14 33 -2 40 7 5 16 9 21 9 4 0 7 15 7 33 0 18 5 38 12
45 14 14 7 14 68 1z m4733 -79 c5 0 7 -15 5 -32 -3 -32 -4 -33 -78 -45 -41 -7
-96 -15 -123 -18 -26 -2 -52 -7 -58 -11 -8 -4 -9 1 -4 17 9 29 24 49 37 49 5
0 18 9 30 20 27 25 92 38 143 28 22 -4 44 -7 48 -8z m-4319 -6 c9 -3 16 -15
16 -25 0 -23 34 -38 80 -37 43 1 80 -37 87 -91 l6 -43 -31 16 c-18 9 -48 31
-69 49 -31 27 -44 32 -87 32 -46 0 -51 3 -60 27 -7 20 -5 33 8 52 17 27 24 30
50 20z m466 -84 c0 -8 -11 -32 -25 -52 -21 -31 -24 -45 -19 -77 5 -33 3 -41
-14 -50 -17 -9 -24 -3 -58 52 -21 34 -44 67 -51 72 -8 6 -14 34 -16 65 l-2 55
65 5 c62 5 66 4 93 -24 15 -17 27 -37 27 -46z m-586 -120 c33 -12 33 -22 -5
-78 -27 -40 -29 -49 -19 -71 10 -21 9 -27 -7 -39 -26 -19 -63 -6 -95 31 -36
43 -42 71 -21 103 35 54 93 75 147 54z m11528 -27 c29 -26 21 -54 -28 -105
-42 -44 -48 -47 -82 -42 -49 9 -82 8 -110 -1 -21 -7 -23 -5 -20 21 2 22 9 30
28 32 25 4 63 29 107 71 22 20 57 39 77 40 5 1 18 -6 28 -16z m-11372 -43 c6
-11 8 -36 4 -55 -7 -40 5 -45 51 -21 24 13 32 12 73 -8 67 -31 72 -35 72 -60
0 -25 -16 -42 -73 -74 -46 -27 -63 -27 -102 -3 -17 10 -47 23 -68 30 -53 18
-94 87 -78 133 21 60 39 78 76 78 24 0 37 -6 45 -20z m-1025 -150 c8 -14 99
-80 149 -108 l39 -23 26 25 c35 34 47 33 55 -5 15 -78 3 -99 -45 -78 -26 10
-33 10 -46 -4 -14 -14 -15 -20 -3 -44 7 -15 12 -54 11 -85 -2 -51 0 -58 23
-73 41 -27 61 -16 59 33 -2 45 13 56 37 27 7 -8 27 -15 45 -15 21 0 35 -6 39
-16 11 -29 6 -71 -12 -95 -10 -13 -23 -36 -30 -51 -14 -33 -22 -35 -45 -8 -14
16 -25 19 -51 15 -22 -5 -44 -1 -64 9 -17 9 -42 16 -55 16 -42 0 -60 33 -66
119 -7 96 -27 126 -77 116 -38 -7 -64 14 -64 50 0 47 9 55 61 55 53 0 57 6 39
55 -5 14 -18 28 -27 32 -32 11 -73 44 -68 54 8 12 62 12 70 -1z m5280 -158
c28 -9 50 -21 50 -27 0 -5 4 -16 9 -24 5 -8 4 -16 -3 -21 -7 -4 -15 -40 -18
-81 -3 -41 -11 -81 -19 -89 -7 -9 -11 -25 -8 -37 4 -13 -1 -26 -13 -34 -31
-24 -46 -63 -39 -106 6 -32 3 -42 -13 -58 -12 -10 -21 -28 -21 -41 0 -12 -10
-35 -23 -51 -13 -15 -33 -45 -46 -65 -12 -20 -35 -48 -52 -62 -16 -14 -29 -32
-29 -40 0 -9 -7 -16 -16 -16 -11 0 -14 -6 -9 -20 4 -11 2 -20 -4 -20 -6 0 -11
-9 -11 -20 0 -11 -7 -20 -15 -20 -8 0 -15 -4 -15 -10 0 -5 4 -10 10 -10 16 0
-29 -73 -64 -102 -21 -18 -43 -27 -67 -28 -19 0 -39 -4 -45 -10 -6 -6 -15 -6
-24 0 -8 5 -10 10 -4 10 16 0 40 39 48 78 6 25 4 32 -8 32 -22 0 -36 -31 -25
-52 7 -14 6 -18 -6 -18 -8 0 -15 -4 -15 -10 0 -5 -7 -10 -16 -10 -9 0 -14 6
-12 12 6 16 -16 38 -36 38 -11 0 -13 8 -9 35 4 27 2 35 -10 35 -34 0 -63 105
-32 116 23 9 19 54 -5 54 -11 0 -20 7 -20 15 0 8 -4 15 -10 15 -5 0 -10 7 -10
15 0 8 7 15 15 15 8 0 15 -7 15 -15 0 -19 16 -19 24 0 3 9 12 12 22 8 12 -4
15 -2 12 8 -3 8 2 20 11 26 14 11 14 13 -6 19 l-22 6 24 26 c13 14 23 37 23
51 0 14 1 31 2 36 1 6 1 13 0 18 -1 4 -3 10 -5 15 -1 4 -5 15 -10 26 -5 11 -3
26 4 39 7 11 9 22 4 26 -4 3 -9 32 -9 64 -1 48 1 57 16 57 21 0 45 26 32 34
-5 3 -9 21 -10 40 -1 28 4 38 33 57 19 13 35 27 35 32 0 4 5 7 11 7 7 0 17 7
23 15 26 34 323 46 411 17z m-3023 -12 c13 -11 35 -31 51 -45 39 -35 36 -71
-7 -89 -18 -8 -37 -19 -40 -25 -11 -18 -48 -13 -73 11 -26 24 -31 76 -12 125
18 47 45 55 81 23z m9914 -32 c11 -13 29 -36 39 -53 10 -16 29 -38 42 -48 13
-10 23 -25 23 -33 0 -7 20 -35 45 -60 l44 -47 -14 -41 c-20 -56 -19 -75 7
-116 15 -24 22 -56 25 -105 5 -80 -9 -115 -49 -129 -22 -8 -32 -4 -65 21 -21
17 -45 33 -53 34 -23 5 -141 -41 -173 -68 -50 -41 -83 -28 -108 40 -20 56 3
115 55 142 45 24 50 33 42 81 -5 22 -13 34 -23 34 -9 0 -27 10 -40 22 -20 18
-23 31 -23 88 0 59 -3 70 -26 94 -15 14 -32 26 -39 26 -16 0 -65 39 -65 51 0
6 7 3 16 -5 8 -9 22 -16 30 -16 8 0 14 -4 14 -9 0 -5 18 -1 40 10 52 25 56 25
95 -18 l33 -36 33 27 c29 25 33 33 30 72 -1 24 0 48 4 54 11 17 41 11 61 -12z
m-10136 -96 c0 -75 -69 -310 -92 -312 -9 0 -2 107 18 259 6 49 53 119 66 98 4
-7 8 -27 8 -45z m-919 -92 c42 -23 17 -96 -36 -106 -33 -6 -34 -8 -37 -58 -3
-47 -5 -51 -28 -50 -41 3 -95 27 -134 62 -23 20 -47 32 -65 32 -36 0 -47 24
-26 56 19 29 39 30 65 4 30 -30 59 -26 66 9 6 29 27 46 45 35 5 -3 9 -10 9
-16 0 -14 30 -48 41 -48 5 0 6 13 3 30 -4 18 -1 36 6 45 14 17 62 20 91 5z
m4494 -71 c4 -6 14 -8 22 -5 8 3 54 8 103 12 81 5 92 3 119 -17 17 -12 33 -29
36 -37 5 -12 -4 -14 -51 -9 -65 7 -99 -4 -158 -52 -51 -41 -73 -40 -92 4 -15
36 -19 97 -7 108 9 10 21 8 28 -4z m-4146 -36 c10 -20 25 -143 23 -183 -3 -42
-16 -42 -78 1 -75 53 -72 49 -51 63 19 14 23 56 7 72 -15 15 -1 44 24 54 35
14 65 11 75 -7z m6714 -285 c17 -7 29 -20 33 -37 3 -14 12 -41 21 -59 10 -20
13 -36 7 -40 -17 -13 -33 -73 -27 -106 4 -27 1 -36 -15 -45 -14 -7 -22 -23
-24 -49 l-4 -37 -9 33 c-12 38 -28 43 -33 10 -5 -32 -28 -62 -37 -48 -4 6 -15
8 -25 5 -13 -4 -22 3 -34 26 -9 17 -13 36 -9 42 4 6 10 1 14 -11 11 -28 45
-28 60 -1 13 26 -4 65 -32 74 -36 12 -28 98 14 139 21 21 21 18 2 63 -24 57
-21 64 28 57 23 -3 54 -10 70 -16z m-6638 -165 c32 -100 48 -123 76 -116 16 4
19 0 19 -26 0 -35 -7 -52 -53 -123 -42 -66 -58 -63 -55 10 1 31 -4 91 -10 132
-19 116 -27 224 -16 217 6 -3 23 -45 39 -94z m6609 -250 c3 -10 2 -44 -3 -75
-4 -32 -4 -58 -1 -58 4 0 2 -17 -5 -37 -9 -26 -10 -42 -2 -54 7 -11 7 -30 -2
-63 -6 -25 -8 -59 -5 -74 6 -25 5 -26 -10 -11 -14 13 -15 23 -7 59 6 29 6 49
0 56 -5 6 -6 19 -3 29 6 16 3 17 -22 11 -28 -7 -28 -7 -11 12 13 14 16 28 11
46 -4 19 -1 33 11 46 12 14 15 27 10 50 l-7 32 -23 -22 c-40 -37 -45 -12 -7
29 40 42 68 51 76 24z m-813 -315 c5 -10 9 -28 9 -41 0 -12 9 -47 20 -77 11
-30 20 -55 20 -56 0 -1 20 -14 45 -29 36 -20 45 -31 40 -45 -4 -11 3 -33 17
-54 26 -40 38 -45 38 -16 0 32 18 23 41 -21 15 -30 18 -44 10 -52 -6 -6 -11
-25 -11 -43 0 -17 -7 -37 -15 -44 -8 -7 -15 -18 -15 -25 0 -7 -8 -23 -19 -36
-10 -13 -20 -33 -22 -44 -3 -12 -12 -20 -24 -20 -16 0 -19 6 -17 28 4 36 -14
60 -37 48 -51 -29 -53 -33 -37 -79 9 -24 15 -71 14 -105 -1 -34 2 -77 6 -94 6
-27 4 -33 -8 -33 -12 0 -16 -10 -16 -35 0 -23 -7 -41 -20 -52 -11 -10 -20 -25
-20 -35 0 -10 -4 -18 -9 -18 -10 0 -21 34 -21 68 0 15 -6 22 -20 22 -11 0 -20
5 -20 10 0 19 39 10 45 -11 9 -27 27 -19 36 15 6 20 4 26 -5 23 -10 -4 -10 5
1 46 17 67 16 135 -2 170 -8 15 -12 34 -9 41 3 7 -2 19 -11 26 -18 15 -20 42
-2 39 26 -3 35 2 42 24 6 19 8 19 12 5 5 -21 33 -24 33 -4 0 8 7 16 15 20 9 3
15 18 15 34 0 16 -7 35 -15 42 -17 14 -21 50 -5 50 5 0 3 19 -5 41 -8 23 -15
53 -15 66 0 14 -11 38 -25 55 -14 16 -25 36 -25 44 0 8 -4 14 -10 14 -5 0 -14
9 -20 20 -9 16 -7 24 5 37 12 11 13 19 6 26 -6 6 -11 21 -11 33 0 12 -6 27
-14 33 -8 7 -17 28 -21 49 -3 20 -9 48 -12 62 -4 21 12 -9 68 -122z m-1931
-373 c28 25 38 10 13 -18 -16 -17 -20 -33 -18 -67 4 -54 -15 -87 -56 -102 -29
-10 -34 -21 -30 -71 2 -27 -13 -57 -29 -57 -3 0 -5 25 -2 55 3 37 1 55 -7 55
-21 0 -11 16 44 73 34 35 51 59 44 63 -17 10 -102 -85 -132 -149 -15 -31 -32
-57 -37 -57 -13 0 -13 27 0 35 6 3 10 14 10 23 0 14 -3 14 -19 -3 -22 -22 -41
-83 -23 -71 10 6 8 -73 -3 -128 -2 -11 3 -32 12 -47 10 -16 14 -32 9 -36 -8
-9 -45 35 -46 55 0 7 -7 24 -16 37 -14 22 -14 30 0 89 9 35 18 99 21 142 4 84
18 129 42 139 25 9 28 -3 5 -22 -28 -24 -37 -103 -12 -103 28 0 110 58 122 87
7 16 19 32 26 36 7 5 18 21 23 35 10 26 11 26 25 8 13 -19 14 -19 34 -1z m410
-110 c0 -7 -7 -18 -15 -23 -9 -4 -23 -23 -33 -42 -11 -22 -25 -34 -40 -35 -16
-1 -19 2 -12 9 31 31 -5 47 -54 25 -28 -13 -25 -29 5 -29 30 0 14 -17 -24 -25
-17 -4 -60 -19 -94 -32 -79 -32 -106 -69 -97 -134 5 -36 2 -51 -17 -81 -24
-37 -49 -50 -49 -25 0 8 8 22 19 31 12 11 20 35 23 69 7 81 48 144 117 175 31
14 59 31 64 38 16 28 75 54 120 54 36 0 49 4 57 20 12 23 30 27 30 5z m1628
-127 c7 -7 27 -11 45 -10 27 2 37 -4 56 -29 21 -28 23 -40 19 -105 -3 -45 -11
-81 -20 -92 -8 -9 -18 -25 -21 -34 -4 -10 -15 -18 -26 -18 -20 0 -19 2 5 48
28 52 32 97 13 143 -10 25 -10 32 1 39 7 4 9 13 6 19 -5 8 -16 6 -38 -5 -28
-15 -30 -18 -23 -60 4 -28 2 -44 -4 -44 -6 0 -11 10 -11 22 0 23 -16 81 -31
110 -5 10 -9 20 -9 23 0 10 26 5 38 -7z m-7458 -23 c39 -20 47 -38 55 -123 9
-87 2 -90 -86 -36 -69 41 -89 67 -89 111 0 56 59 79 120 48z m-264 -183 c6 -4
23 -26 38 -49 14 -24 32 -43 40 -43 16 0 39 25 60 68 10 20 24 32 36 32 25 0
70 -70 70 -109 0 -32 24 -60 35 -41 5 8 24 9 56 5 40 -6 50 -4 55 9 4 9 18 16
33 16 20 0 31 7 39 25 7 14 24 30 39 36 14 5 36 21 49 34 38 41 73 16 74 -52
0 -31 6 -29 52 12 31 29 42 34 58 25 10 -5 21 -19 25 -29 3 -11 19 -22 35 -26
32 -7 70 -48 70 -74 0 -35 -19 -46 -86 -51 -41 -3 -69 -10 -72 -17 -2 -8 7
-13 25 -13 19 -1 45 -16 81 -48 52 -47 52 -48 41 -82 -18 -52 -28 -61 -68 -58
-30 3 -42 11 -75 56 -26 34 -46 52 -60 52 -12 0 -48 9 -80 21 -35 12 -62 17
-68 11 -5 -5 -9 -37 -9 -71 -1 -44 -5 -64 -15 -68 -8 -3 -14 -14 -14 -24 0
-10 -4 -19 -10 -19 -5 0 -10 7 -10 15 0 18 -67 107 -94 125 -16 10 -22 9 -37
-11 -14 -19 -20 -22 -30 -11 -18 17 -43 15 -70 -7 -17 -14 -29 -17 -41 -10
-12 6 -32 6 -58 -2 -35 -11 -43 -10 -56 3 -24 23 -5 49 70 97 35 22 67 45 71
50 12 20 -15 49 -52 56 -21 4 -52 15 -69 26 -17 10 -37 19 -44 19 -21 0 -49
30 -43 46 3 7 -5 27 -16 43 -12 16 -21 32 -21 35 0 8 33 7 46 -2z m183 -429
c-13 -57 -11 -81 10 -102 27 -27 30 -42 15 -80 -8 -18 -14 -42 -14 -52 0 -10
-12 -26 -27 -36 -16 -10 -32 -23 -36 -30 -10 -17 -39 -16 -80 1 -53 22 -67 42
-67 96 0 61 30 90 95 90 47 0 55 9 55 63 0 21 9 42 25 60 14 15 27 27 29 27 2
0 0 -17 -5 -37z m-247 -10 c10 -9 18 -27 18 -41 0 -30 -21 -92 -31 -92 -4 0
-14 -6 -21 -13 -64 -61 -76 -66 -121 -53 -63 18 -62 46 2 74 64 30 74 42 61
76 -14 39 -13 46 13 56 34 14 59 12 79 -7z m374 -108 c2 -69 3 -75 29 -87 21
-9 30 -7 65 16 55 36 67 34 82 -20 16 -57 58 -95 83 -74 8 7 15 21 15 32 0 11
9 40 19 66 10 26 24 61 31 79 11 29 15 31 48 27 72 -10 83 -15 102 -47 26 -43
25 -67 -5 -100 -27 -28 -33 -30 -77 -27 -25 1 -42 -20 -37 -46 9 -51 -31 -78
-113 -76 -33 0 -65 5 -71 11 -14 14 -37 14 -37 1 0 -5 9 -19 20 -30 14 -14 20
-33 20 -62 0 -39 3 -45 40 -65 21 -13 48 -23 59 -23 21 0 27 -17 22 -64 -2
-29 -22 -49 -35 -36 -7 7 -15 4 -26 -11 l-16 -21 -45 36 c-24 20 -50 41 -58
48 -9 7 -12 24 -8 50 6 42 -1 53 -56 93 -17 12 -30 32 -31 48 -2 15 -15 38
-30 52 -22 20 -26 30 -19 48 10 27 5 155 -6 175 -12 22 -1 53 18 50 11 -3 16
-15 17 -43z m11284 -138 c19 -18 45 -39 58 -47 20 -14 62 -106 62 -137 0 -17
-86 -17 -119 0 -16 8 -31 30 -42 63 -10 29 -32 65 -49 82 -34 35 -36 44 -14
67 22 22 59 12 104 -28z m-10664 -142 c3 -14 4 -40 1 -58 -2 -17 -1 -40 4 -49
13 -24 -3 -29 -34 -13 -26 13 -27 13 -27 -11 0 -31 -26 -41 -59 -23 -33 19
-54 62 -46 97 7 34 77 80 122 81 27 1 34 -4 39 -24z m12561 -111 c45 -5 53 -9
63 -35 18 -43 -11 -86 -82 -123 -74 -37 -99 -31 -127 30 -34 72 -37 98 -11
124 18 18 29 21 63 16 23 -4 65 -9 94 -12z m-12889 -244 c2 -12 -6 -36 -19
-53 -15 -21 -24 -50 -27 -87 -3 -30 -11 -64 -18 -75 -8 -11 -14 -27 -14 -37 0
-10 -2 -18 -4 -18 -2 0 -12 -3 -21 -6 -15 -6 -16 1 -9 67 9 81 10 126 3 148
-2 9 11 22 35 33 21 11 41 28 43 39 7 26 27 19 31 -11z"/>
<path d="M10842 13623 c-18 -2 -44 -10 -58 -17 l-25 -14 23 -18 c13 -11 33
-37 44 -58 10 -22 29 -46 40 -53 19 -12 24 -12 38 2 9 9 16 29 16 44 0 32 -29
122 -38 119 -4 0 -22 -3 -40 -5z"/>
<path d="M7960 13942 c0 -7 -9 -12 -19 -12 -26 0 -76 -44 -67 -58 4 -6 30 -23
58 -37 45 -23 53 -24 60 -11 11 19 78 22 96 4 6 -6 14 -9 18 -6 12 13 -7 44
-33 56 -40 17 -70 36 -93 57 -11 10 -20 13 -20 7z"/>
<path d="M11315 12148 c-33 -36 -35 -42 -22 -56 15 -14 38 -17 103 -12 26 2
38 -4 64 -34 18 -20 38 -36 45 -36 13 0 55 46 55 60 0 4 -25 12 -56 19 -41 10
-57 18 -64 35 -10 26 -27 41 -62 55 -24 9 -30 6 -63 -31z"/>
<path d="M11218 11367 c-2 -13 -15 -24 -38 -32 -29 -10 -36 -18 -41 -46 -3
-19 -11 -45 -16 -59 -16 -41 -6 -60 32 -60 40 0 65 8 65 22 0 6 14 30 30 55
17 24 30 53 30 63 0 52 -55 103 -62 57z"/>
<path d="M10917 11162 c-17 -19 -27 -127 -14 -149 4 -6 21 -13 39 -15 26 -4
38 0 59 23 15 16 36 29 48 29 17 0 21 6 21 35 0 30 -5 37 -32 48 -18 8 -39 21
-47 30 -18 22 -54 22 -74 -1z"/>
<path d="M10735 11081 c-10 -31 -45 -71 -63 -71 -29 0 -92 -84 -92 -123 0 -21
33 -47 59 -47 25 0 68 40 93 88 13 24 24 32 45 32 85 1 100 31 47 95 -41 49
-78 59 -89 26z"/>
<path d="M8405 11429 c-16 -5 -70 -11 -120 -13 -111 -6 -119 -9 -132 -51 -17
-55 2 -73 74 -68 80 5 84 7 77 43 l-6 30 76 0 76 0 0 29 c0 36 -7 41 -45 30z"/>
<path d="M9439 11574 c-13 -16 -34 -15 -117 2 -24 5 -38 2 -52 -11 -19 -17
-18 -19 45 -50 55 -28 74 -33 132 -32 90 2 104 21 57 76 -29 35 -45 38 -65 15z"/>
<path d="M3458 10783 c-24 -28 -41 -91 -33 -129 6 -35 6 -35 55 -33 59 3 66 6
79 43 10 24 7 36 -16 79 -31 57 -59 70 -85 40z"/>
<path d="M4328 9745 c-12 -26 -23 -28 -72 -9 -13 5 -16 -1 -16 -28 0 -18 -7
-44 -16 -56 -24 -35 -11 -72 26 -72 25 0 32 -6 44 -35 8 -19 21 -35 29 -35 16
0 30 -24 20 -34 -9 -8 -66 -7 -79 2 -6 4 -16 17 -23 30 -7 13 -21 22 -36 22
-31 0 -41 -17 -22 -38 17 -19 41 -67 51 -99 7 -21 4 -22 -70 -25 l-76 -3 20
-25 c15 -18 31 -25 59 -26 156 -4 189 -24 178 -111 -6 -50 -5 -52 23 -67 27
-14 31 -14 47 4 24 26 16 63 -15 70 -27 6 -39 35 -21 53 7 7 16 5 30 -7 19
-17 20 -17 31 4 7 12 12 43 13 68 0 37 6 53 26 73 22 21 31 24 51 17 14 -5 37
-7 51 -4 36 7 79 -35 59 -59 -7 -8 -21 -15 -31 -15 -24 0 -24 -5 2 -47 23 -38
19 -63 -10 -63 -32 0 -38 -40 -10 -62 84 -66 96 -85 103 -158 7 -66 8 -69 24
-53 15 15 17 15 20 1 2 -9 12 -18 22 -21 13 -3 20 -16 22 -43 2 -31 7 -39 23
-39 12 0 21 8 23 20 4 28 -36 115 -53 115 -16 0 -65 56 -65 75 0 8 9 17 20 20
11 3 20 15 20 26 0 10 5 19 10 19 6 0 10 -13 10 -29 0 -16 7 -34 16 -42 8 -7
22 -26 31 -43 l16 -30 18 23 c11 13 19 33 19 45 0 11 9 39 19 62 24 53 18 144
-9 144 -10 0 -33 18 -50 40 -26 32 -35 38 -46 29 -24 -20 -15 -46 33 -93 50
-49 49 -59 -4 -69 -27 -5 -33 -3 -33 11 0 10 -4 22 -9 28 -13 12 -66 107 -91
162 -12 26 -18 53 -14 68 4 17 1 26 -11 30 -9 4 -21 18 -26 31 -6 17 -14 23
-27 19 -14 -5 -20 2 -27 26 -10 32 -12 33 -66 36 -48 2 -58 7 -69 27 -7 14
-17 25 -21 25 -17 0 -40 63 -37 98 3 32 0 37 -19 40 -17 2 -26 -4 -35 -23z"/>
<path d="M3820 9695 c0 -22 -6 -37 -17 -44 -17 -9 -17 -11 2 -25 11 -8 37 -16
58 -16 26 0 37 -4 37 -15 0 -18 -1 -18 -33 -6 -25 10 -37 -1 -37 -30 0 -10 43
-12 88 -3 24 5 29 10 26 28 -15 83 -17 87 -48 100 -17 7 -37 20 -45 29 -21 26
-31 20 -31 -18z"/>
<path d="M3705 9540 c-3 -5 -3 -26 1 -48 4 -25 2 -42 -5 -46 -6 -4 -11 -18
-11 -30 0 -13 -6 -39 -14 -57 -14 -32 -5 -79 15 -79 4 0 13 -16 20 -35 10 -26
19 -35 35 -35 13 0 31 -11 41 -24 10 -13 33 -30 50 -39 17 -9 33 -27 37 -41 7
-29 41 -42 81 -32 19 5 33 -1 62 -27 21 -19 44 -32 51 -30 6 3 12 -1 12 -7 0
-10 4 -10 15 0 8 7 15 23 15 37 0 13 5 23 13 22 32 -4 36 2 33 48 -3 56 -26
72 -26 18 0 -32 -3 -36 -22 -33 -19 2 -24 -2 -26 -29 -3 -35 -22 -46 -22 -13
0 11 -10 44 -22 75 -20 48 -27 56 -56 61 -20 4 -40 17 -53 35 -11 16 -28 29
-37 29 -9 0 -30 11 -47 24 -24 19 -29 30 -27 60 2 30 -4 42 -34 72 -30 31 -35
41 -30 68 3 17 2 36 -2 42 -10 15 -40 25 -47 14z"/>
<path d="M4425 9130 c-7 -21 21 -69 54 -92 32 -23 43 -54 25 -72 -18 -18 -18
-18 15 -66 34 -50 59 -66 117 -73 l50 -6 -10 44 c-10 41 -11 43 -42 38 -23 -4
-40 1 -62 17 -29 22 -30 23 -13 51 16 30 16 30 -25 67 -22 20 -48 42 -59 47
-15 9 -16 15 -7 32 6 11 8 23 5 27 -13 13 -42 5 -48 -14z"/>
<path d="M8465 8994 c-25 -10 -90 -17 -175 -19 -204 -7 -240 -17 -227 -64 3
-11 -1 -28 -9 -38 -7 -10 -13 -31 -14 -48 0 -38 23 -105 42 -119 7 -6 12 -19
10 -30 -2 -10 1 -23 7 -29 19 -19 13 -57 -9 -57 -18 0 -20 -7 -20 -82 0 -119
20 -192 61 -229 20 -18 35 -25 39 -18 4 6 13 -3 20 -21 14 -33 56 -59 149 -91
101 -35 335 -22 446 25 99 42 110 60 37 62 -72 3 -72 3 -80 25 -7 17 -18 21
-60 24 -61 4 -72 10 -72 34 0 28 51 68 110 87 30 9 61 21 68 27 14 11 79 5
177 -19 88 -21 205 -29 205 -15 0 5 -17 13 -37 16 -63 11 -71 16 -45 28 30 14
28 20 -10 39 -18 8 -51 25 -73 37 -41 21 -204 66 -212 58 -2 -3 20 -10 49 -17
62 -15 83 -24 121 -56 40 -33 19 -32 -137 11 -71 19 -138 35 -150 35 -11 0
-27 4 -35 9 -26 17 26 33 87 27 39 -4 50 -3 36 3 -12 5 -72 14 -135 21 -62 6
-113 12 -114 13 0 1 -9 19 -19 40 -17 34 -18 39 -4 50 9 6 23 28 33 48 25 56
82 75 212 73 l102 -2 -15 24 c-9 13 -20 21 -25 19 -5 -3 -22 1 -39 10 -26 14
-29 18 -19 36 15 29 4 49 -29 49 -15 0 -33 5 -39 11 -6 6 -40 12 -75 13 -34 1
-70 4 -78 8 -8 4 -33 0 -55 -8z"/>
<path d="M8195 7618 c-16 -6 -41 -20 -53 -32 l-24 -21 39 -7 c96 -19 233 -14
240 8 12 36 -139 76 -202 52z"/>
<path d="M2132 8774 c-23 -16 -57 -15 -94 1 -13 5 -18 3 -18 -9 0 -9 8 -16 18
-16 24 0 74 -53 87 -93 8 -25 16 -32 35 -32 35 0 49 36 41 105 -5 45 -10 56
-26 58 -11 1 -30 -5 -43 -14z"/>
<path d="M14244 11385 c-4 -9 -1 -34 6 -55 7 -21 10 -54 7 -73 -6 -40 20 -91
52 -102 25 -8 78 19 86 44 11 35 -6 72 -45 96 -28 18 -40 34 -47 62 -6 28 -14
39 -31 41 -13 2 -25 -3 -28 -13z"/>
<path d="M14842 8680 c-25 -24 -28 -54 -8 -101 12 -29 12 -39 0 -68 -19 -46
-19 -48 24 -62 20 -6 50 -23 66 -36 39 -32 114 -30 127 4 7 18 1 30 -30 63
-21 23 -44 53 -52 68 -7 15 -26 41 -40 59 -15 17 -30 45 -34 62 -8 36 -23 39
-53 11z"/>
<path d="M7856 6045 c-18 -37 -42 -49 -31 -16 7 23 -10 37 -22 19 -4 -7 -8
-36 -9 -64 -1 -28 -7 -60 -13 -72 -7 -13 -8 -44 -4 -83 4 -46 3 -60 -5 -55 -7
4 -12 15 -13 24 -1 11 -4 8 -9 -8 -12 -38 -12 -182 0 -175 6 3 10 14 10 24 0
13 6 17 23 14 16 -2 28 6 47 33 14 20 49 60 79 90 31 31 51 59 48 67 -3 8 -11
40 -18 71 -22 93 -53 61 -51 -54 1 -55 0 -55 -14 -27 -10 18 -21 26 -30 23
-50 -20 -48 -21 -41 15 4 19 18 43 31 54 30 26 72 92 80 128 6 24 3 27 -18 27
-17 0 -28 -9 -40 -35z"/>
<path d="M14122 5567 c-6 -56 -2 -68 32 -103 49 -51 54 -74 22 -121 -37 -54
-34 -70 15 -83 57 -15 63 -6 48 69 l-12 62 32 28 c25 23 31 35 31 69 0 46 -15
61 -80 80 -79 23 -86 23 -88 -1z"/>
<path d="M9399 4948 c-59 -57 -114 -118 -123 -135 -9 -18 -20 -33 -24 -33 -4
0 -16 -13 -25 -30 -31 -52 -185 -215 -234 -247 -13 -9 -23 -19 -23 -24 0 -17
-64 -68 -93 -74 -15 -4 -33 -15 -40 -26 -7 -11 -31 -31 -54 -46 -25 -15 -43
-35 -43 -45 0 -10 -4 -18 -9 -18 -5 0 -13 -10 -17 -22 -7 -23 -48 -68 -62 -68
-4 0 -13 -9 -20 -21 -7 -11 -19 -18 -27 -15 -17 6 -30 -25 -13 -35 15 -9 -30
-49 -48 -42 -17 6 -29 -18 -13 -27 10 -7 10 -11 0 -24 -8 -9 -19 -16 -26 -16
-8 0 -16 -6 -18 -12 -4 -10 -6 -10 -6 0 -1 6 -7 12 -15 12 -8 0 -14 -6 -13
-12 1 -32 -5 -44 -25 -53 -13 -6 -24 -20 -26 -33 -3 -22 -2 -21 74 13 43 20
86 42 94 50 9 8 45 27 81 41 114 45 172 78 190 108 10 16 29 34 43 40 50 22
169 180 257 342 15 27 42 66 61 85 161 169 322 411 306 460 -2 5 -51 -37 -109
-93z"/>
<path d="M5996 4738 c3 -4 -2 -11 -11 -15 -10 -3 -21 0 -26 8 -5 9 -9 10 -9 2
0 -6 16 -33 36 -59 20 -26 37 -58 37 -71 0 -13 3 -26 8 -29 5 -3 9 2 9 10 0 9
5 16 10 16 14 0 13 -7 -6 -35 -15 -23 -15 -25 0 -25 9 0 16 -8 16 -19 0 -10 7
-21 15 -25 8 -3 15 -12 15 -21 0 -21 17 -19 23 3 3 9 5 1 6 -18 2 -45 9 -55
52 -70 20 -7 44 -26 55 -41 10 -16 25 -29 32 -29 6 0 12 -5 12 -11 0 -6 -7 -8
-16 -5 -9 3 -12 2 -9 -5 4 -6 13 -8 20 -5 20 7 55 -32 55 -63 0 -23 7 -31 40
-46 22 -10 40 -23 40 -29 0 -6 16 -11 36 -12 20 0 42 -7 48 -16 6 -8 16 -13
23 -11 6 2 21 -5 32 -16 12 -12 23 -21 26 -21 5 0 15 -1 30 -4 22 -4 63 -25
70 -35 3 -6 17 -11 31 -11 13 0 24 -5 24 -11 0 -7 9 -9 23 -5 19 4 35 -6 84
-54 35 -34 74 -62 90 -65 15 -3 22 -2 16 1 -13 6 -18 46 -7 57 12 12 32 -5 27
-23 -3 -12 2 -20 16 -25 12 -3 19 -10 17 -14 -3 -4 17 -7 44 -6 28 1 50 5 50
8 0 4 0 12 0 17 0 6 -7 10 -15 10 -8 0 -15 7 -15 15 0 8 3 15 8 15 4 0 7 34 7
77 -1 67 -3 77 -20 83 -11 4 -26 5 -33 3 -8 -4 -10 0 -6 11 3 9 1 16 -5 16 -6
0 -11 7 -11 15 0 17 -12 19 -27 4 -7 -7 -15 -3 -26 14 -15 24 -13 37 5 37 4 0
8 -6 8 -14 0 -10 12 -14 38 -13 89 1 164 -25 269 -95 55 -37 104 -72 108 -77
8 -14 62 -14 70 -1 11 18 26 10 36 -20 10 -28 28 -38 42 -24 8 8 -33 86 -50
97 -7 4 -13 12 -13 16 0 4 -17 26 -38 48 -36 37 -70 55 -117 59 -68 5 -196 30
-295 56 -63 17 -131 33 -150 35 -35 4 -63 14 -112 39 -14 8 -33 14 -41 14 -16
0 -150 73 -179 98 -10 8 -16 17 -14 21 5 9 -61 70 -69 63 -3 -3 -8 4 -12 16
-3 12 -9 22 -14 22 -5 0 -9 7 -9 15 0 8 -8 15 -17 16 -17 0 -76 67 -113 125
-16 26 -30 31 -30 12 0 -7 -7 -21 -14 -31 -14 -17 -17 -16 -55 18 l-41 37 -19
-23 -19 -24 -24 21 c-23 21 -83 39 -72 22z"/>
<path d="M5060 4712 c0 -4 11 -19 25 -34 14 -15 25 -31 25 -35 1 -26 91 -93
124 -93 9 0 16 -7 16 -15 0 -8 6 -15 14 -15 8 0 21 -8 28 -19 7 -10 34 -26 60
-35 58 -19 88 -37 88 -52 0 -6 11 -20 26 -33 17 -15 23 -28 19 -41 -9 -27 41
-72 72 -65 21 5 63 -27 63 -47 0 -5 10 -3 22 3 16 9 23 9 26 0 6 -17 20 -13
27 8 4 13 12 17 25 14 17 -5 20 0 20 31 0 20 -4 36 -10 36 -5 0 -10 8 -10 18
0 23 -36 47 -44 29 -4 -7 -4 3 -1 21 2 17 1 32 -4 32 -5 0 -11 18 -13 40 -2
22 0 40 4 40 5 0 8 -6 8 -13 0 -8 18 3 40 23 22 20 40 42 40 49 0 8 5 9 19 2
17 -10 31 -6 31 9 0 16 -60 33 -120 36 -83 3 -179 12 -201 19 -10 3 -20 1 -24
-5 -9 -14 -25 -13 -20 3 4 9 -10 12 -52 11 -32 0 -68 3 -80 8 -13 4 -25 3 -29
-3 -4 -7 -10 -6 -19 1 -8 7 -23 9 -35 5 -17 -5 -20 -2 -20 19 0 25 -9 31 -39
27 -7 -2 -10 2 -7 7 3 5 -8 12 -25 16 -42 8 -69 8 -69 -2z"/>
<path d="M2998 3699 c-10 -10 -18 -25 -18 -32 0 -8 -11 -19 -25 -25 -22 -10
-25 -18 -25 -66 0 -35 5 -58 15 -66 9 -7 15 -29 15 -51 0 -22 4 -39 8 -39 4 0
8 -8 9 -18 2 -32 36 -99 55 -111 21 -13 19 -21 22 114 2 50 6 113 10 141 6 35
5 54 -3 58 -16 10 -14 26 4 26 8 0 15 7 15 15 0 8 -6 15 -14 15 -8 0 -17 14
-21 30 -7 34 -22 37 -47 9z"/>
<path d="M8410 1451 c0 -17 -4 -32 -9 -36 -17 -10 -37 -368 -25 -456 10 -73
20 -51 22 48 3 141 20 324 32 338 6 7 8 24 5 38 -4 14 -2 28 4 31 6 4 11 20
11 37 0 22 -5 29 -20 29 -15 0 -20 -7 -20 -29z"/>
</g>
</svg>
